<?xml version="1.0" encoding="utf-8"?>
<!-- Generator: Adobe Illustrator 27.5.0, SVG Export Plug-In . SVG Version: 6.00 Build 0)  -->
<svg version="1.1" xmlns="http://www.w3.org/2000/svg" xmlns:xlink="http://www.w3.org/1999/xlink" x="0px" y="0px"
	 viewBox="0 0 500 500" style="enable-background:new 0 0 500 500;" xml:space="preserve">
<g id="Background_Complete">
	<g>
		<rect y="382.398" style="fill:#EBEBEB;" width="500" height="0.25"/>
		<rect x="394.667" y="398.494" style="fill:#EBEBEB;" width="55.235" height="0.25"/>
		<rect x="321.807" y="393.25" style="fill:#EBEBEB;" width="8.693" height="0.25"/>
		<rect x="372.474" y="389.208" style="fill:#EBEBEB;" width="19.192" height="0.25"/>
		<rect x="52.459" y="390.888" style="fill:#EBEBEB;" width="43.193" height="0.25"/>
		<rect x="215.333" y="397.347" style="fill:#EBEBEB;" width="45.722" height="0.25"/>
		<rect x="140.464" y="393.125" style="fill:#EBEBEB;" width="93.676" height="0.25"/>
		<path style="fill:#EBEBEB;" d="M242.721,332.092c0,3.147-2.561,5.708-5.707,5.708H43.915c-3.147,0-5.708-2.561-5.708-5.708V60.66
			c0-3.147,2.561-5.708,5.708-5.708h193.099c3.146,0,5.707,2.561,5.707,5.708 M242.471,60.66c0-3.009-2.448-5.458-5.457-5.458
			H43.915c-3.01,0-5.458,2.448-5.458,5.458v271.432c0,3.01,2.448,5.458,5.458,5.458h193.099c3.009,0,5.457-2.448,5.457-5.458"/>
		<path style="fill:#EBEBEB;" d="M453.31,337.8H260.212c-3.147,0-5.707-2.561-5.707-5.708V60.66c0-3.147,2.561-5.708,5.707-5.708
			H453.31c3.148,0,5.708,2.561,5.708,5.708v271.432C459.019,335.239,456.458,337.8,453.31,337.8z M260.212,55.203
			c-3.009,0-5.457,2.448-5.457,5.458v271.432c0,3.01,2.448,5.458,5.457,5.458H453.31c3.01,0,5.458-2.448,5.458-5.458V60.66
			c0-3.009-2.448-5.458-5.458-5.458H260.212z"/>
	</g>
	<g>
		<path style="fill:#E0E0E0;" d="M193.152,147.563c-0.131-15.587-12.801-28.183-28.419-28.183c-3.763,0-7.352,0.738-10.639,2.066
			c-5.582-11.419-17.307-19.286-30.873-19.286c-16.406,0-30.117,11.505-33.526,26.885c-15.429,0.992-27.639,13.814-27.639,29.494
			c0,16.327,13.236,29.563,29.563,29.563h94.071c11.574,0,20.956-9.382,20.956-20.956
			C206.646,158.202,201.04,150.571,193.152,147.563z"/>
		<path style="fill:#F5F5F5;" d="M434.041,284.008c-0.131-15.587-12.801-28.183-28.419-28.183c-3.763,0-7.352,0.738-10.639,2.066
			c-5.582-11.419-17.307-19.286-30.873-19.286c-16.406,0-30.117,11.505-33.526,26.885c-15.429,0.992-27.639,13.814-27.639,29.494
			c0,16.327,13.236,29.563,29.563,29.563h94.071c11.574,0,20.957-9.383,20.957-20.957
			C447.535,294.647,441.929,287.016,434.041,284.008z"/>
		<path style="fill:#E0E0E0;" d="M343.96,191.859c-0.068-8.084-6.64-14.618-14.74-14.618c-1.952,0-3.813,0.383-5.518,1.072
			c-2.895-5.923-8.977-10.003-16.013-10.003c-8.509,0-15.621,5.967-17.389,13.945c-8.003,0.515-14.335,7.165-14.335,15.298
			c0,8.468,6.865,15.333,15.334,15.333h48.792c6.003,0,10.87-4.866,10.87-10.87C350.959,197.378,348.052,193.419,343.96,191.859z"/>
		<path style="fill:#EBEBEB;" d="M412.766,103.827c-0.09-10.68-8.772-19.312-19.473-19.312c-2.579,0-5.038,0.506-7.29,1.416
			c-3.825-7.824-11.859-13.215-21.155-13.215c-11.242,0-20.637,7.884-22.972,18.422c-10.573,0.68-18.939,9.466-18.939,20.21
			c0,11.188,9.069,20.257,20.257,20.257h64.459c7.931,0,14.36-6.429,14.36-14.36C422.012,111.117,418.171,105.888,412.766,103.827z"
			/>
		<path style="fill:#F5F5F5;" d="M206.087,275.221c-0.089-10.68-8.772-19.312-19.473-19.312c-2.579,0-5.038,0.506-7.29,1.416
			c-3.825-7.824-11.859-13.215-21.155-13.215c-11.242,0-20.637,7.884-22.972,18.422c-10.572,0.68-18.939,9.466-18.939,20.21
			c0,11.188,9.069,20.257,20.257,20.257h64.459c7.931,0,14.36-6.429,14.36-14.36C215.333,282.512,211.492,277.283,206.087,275.221z"
			/>
		<g>
			<g>
				<path style="fill:#E0E0E0;" d="M131,175.06c-0.13,0-0.261-0.06-0.351-0.15c-0.05-0.05-0.09-0.1-0.109-0.16
					c-0.03-0.06-0.04-0.13-0.04-0.19c0-0.07,0.01-0.13,0.04-0.2c0.02-0.06,0.06-0.11,0.109-0.16c0.13-0.13,0.351-0.18,0.54-0.11
					c0.061,0.03,0.12,0.07,0.16,0.11c0.101,0.1,0.15,0.22,0.15,0.36c0,0.06-0.011,0.13-0.04,0.19c-0.021,0.06-0.061,0.11-0.11,0.16
					C131.26,175,131.13,175.06,131,175.06z"/>
				<path style="fill:#E0E0E0;" d="M130.5,196.6c0-0.28,0.23-0.5,0.5-0.5l0,0c0.279,0,0.5,0.22,0.5,0.5l0,0
					c0,0.28-0.221,0.5-0.5,0.5l0,0C130.73,197.1,130.5,196.88,130.5,196.6z M130.5,191.09c0-0.28,0.23-0.5,0.5-0.5l0,0
					c0.279,0,0.5,0.22,0.5,0.5l0,0c0,0.27-0.221,0.5-0.5,0.5l0,0C130.73,191.59,130.5,191.36,130.5,191.09z M130.5,185.58
					c0-0.28,0.23-0.5,0.5-0.5l0,0c0.279,0,0.5,0.22,0.5,0.5l0,0c0,0.27-0.221,0.5-0.5,0.5l0,0
					C130.73,186.08,130.5,185.85,130.5,185.58z M130.5,180.07c0-0.28,0.23-0.5,0.5-0.5l0,0c0.279,0,0.5,0.22,0.5,0.5l0,0
					c0,0.27-0.221,0.5-0.5,0.5l0,0C130.73,180.57,130.5,180.34,130.5,180.07z"/>
				<path style="fill:#E0E0E0;" d="M131,202.61c-0.061,0-0.13-0.01-0.19-0.04c-0.06-0.02-0.12-0.06-0.16-0.11
					c-0.05-0.04-0.09-0.1-0.109-0.16c-0.03-0.06-0.04-0.12-0.04-0.19c0-0.06,0.01-0.13,0.04-0.19c0.02-0.06,0.06-0.12,0.109-0.16
					c0.04-0.05,0.101-0.08,0.16-0.11c0.12-0.05,0.26-0.05,0.38,0c0.061,0.03,0.12,0.06,0.16,0.11c0.05,0.04,0.09,0.1,0.11,0.16
					c0.029,0.06,0.04,0.13,0.04,0.19c0,0.13-0.05,0.26-0.15,0.35c-0.04,0.05-0.1,0.09-0.16,0.11
					C131.13,202.6,131.069,202.61,131,202.61z"/>
				<path style="fill:#E0E0E0;" d="M222.17,202.11c0-0.27,0.22-0.5,0.49-0.5l0,0c0.279,0,0.51,0.23,0.51,0.5l0,0
					c0,0.28-0.23,0.5-0.51,0.5l0,0C222.39,202.61,222.17,202.39,222.17,202.11z M216.06,202.11c0-0.27,0.22-0.5,0.5-0.5l0,0
					c0.27,0,0.49,0.23,0.49,0.5l0,0c0,0.28-0.22,0.5-0.49,0.5l0,0C216.279,202.61,216.06,202.39,216.06,202.11z M209.95,202.11
					c0-0.27,0.22-0.5,0.5-0.5l0,0c0.27,0,0.5,0.23,0.5,0.5l0,0c0,0.28-0.23,0.5-0.5,0.5l0,0
					C210.17,202.61,209.95,202.39,209.95,202.11z M203.83,202.11c0-0.27,0.23-0.5,0.5-0.5l0,0c0.279,0,0.5,0.23,0.5,0.5l0,0
					c0,0.28-0.221,0.5-0.5,0.5l0,0C204.06,202.61,203.83,202.39,203.83,202.11z M197.72,202.11c0-0.27,0.23-0.5,0.5-0.5l0,0
					c0.28,0,0.5,0.23,0.5,0.5l0,0c0,0.28-0.22,0.5-0.5,0.5l0,0C197.95,202.61,197.72,202.39,197.72,202.11z M191.609,202.11
					c0-0.27,0.221-0.5,0.5-0.5l0,0c0.28,0,0.5,0.23,0.5,0.5l0,0c0,0.28-0.22,0.5-0.5,0.5l0,0
					C191.83,202.61,191.609,202.39,191.609,202.11z M185.5,202.11c0-0.27,0.22-0.5,0.5-0.5l0,0c0.279,0,0.5,0.23,0.5,0.5l0,0
					c0,0.28-0.221,0.5-0.5,0.5l0,0C185.72,202.61,185.5,202.39,185.5,202.11z M179.39,202.11c0-0.27,0.22-0.5,0.5-0.5l0,0
					c0.271,0,0.5,0.23,0.5,0.5l0,0c0,0.28-0.229,0.5-0.5,0.5l0,0C179.609,202.61,179.39,202.39,179.39,202.11z M173.279,202.11
					c0-0.27,0.221-0.5,0.5-0.5l0,0c0.271,0,0.5,0.23,0.5,0.5l0,0c0,0.28-0.229,0.5-0.5,0.5l0,0
					C173.5,202.61,173.279,202.39,173.279,202.11z M167.17,202.11c0-0.27,0.22-0.5,0.5-0.5l0,0c0.27,0,0.5,0.23,0.5,0.5l0,0
					c0,0.28-0.23,0.5-0.5,0.5l0,0C167.39,202.61,167.17,202.39,167.17,202.11z M161.05,202.11c0-0.27,0.229-0.5,0.5-0.5l0,0
					c0.28,0,0.51,0.23,0.51,0.5l0,0c0,0.28-0.23,0.5-0.51,0.5l0,0C161.279,202.61,161.05,202.39,161.05,202.11z M154.95,202.11
					c0-0.27,0.22-0.5,0.5-0.5l0,0c0.27,0,0.489,0.23,0.489,0.5l0,0c0,0.28-0.22,0.5-0.489,0.5l0,0
					C155.17,202.61,154.95,202.39,154.95,202.11z M148.83,202.11c0-0.27,0.23-0.5,0.5-0.5l0,0c0.279,0,0.5,0.23,0.5,0.5l0,0
					c0,0.28-0.221,0.5-0.5,0.5l0,0C149.06,202.61,148.83,202.39,148.83,202.11z M142.72,202.11c0-0.27,0.23-0.5,0.5-0.5l0,0
					c0.28,0,0.5,0.23,0.5,0.5l0,0c0,0.28-0.22,0.5-0.5,0.5l0,0C142.95,202.61,142.72,202.39,142.72,202.11z M136.609,202.11
					c0-0.27,0.23-0.5,0.5-0.5l0,0c0.28,0,0.5,0.23,0.5,0.5l0,0c0,0.28-0.22,0.5-0.5,0.5l0,0
					C136.84,202.61,136.609,202.39,136.609,202.11z"/>
				<path style="fill:#E0E0E0;" d="M228.779,202.61c-0.069,0-0.13-0.01-0.189-0.04c-0.061-0.02-0.12-0.06-0.17-0.11
					c-0.04-0.04-0.08-0.1-0.101-0.16c-0.029-0.06-0.04-0.12-0.04-0.19c0-0.06,0.011-0.13,0.04-0.19c0.02-0.06,0.061-0.12,0.101-0.16
					c0.05-0.05,0.109-0.09,0.17-0.11c0.12-0.05,0.26-0.05,0.38,0c0.06,0.02,0.12,0.06,0.16,0.11c0.04,0.04,0.08,0.1,0.109,0.16
					c0.02,0.06,0.04,0.13,0.04,0.19c0,0.13-0.06,0.26-0.149,0.35c-0.04,0.05-0.101,0.09-0.16,0.11
					C228.91,202.6,228.84,202.61,228.779,202.61z"/>
				<path style="fill:#E0E0E0;" d="M228.279,196.16c0-0.28,0.221-0.5,0.5-0.5l0,0c0.271,0,0.5,0.22,0.5,0.5l0,0
					c0,0.27-0.229,0.5-0.5,0.5l0,0C228.5,196.66,228.279,196.43,228.279,196.16z M228.279,190.2c0-0.28,0.221-0.5,0.5-0.5l0,0
					c0.271,0,0.5,0.22,0.5,0.5l0,0c0,0.28-0.229,0.5-0.5,0.5l0,0C228.5,190.7,228.279,190.48,228.279,190.2z M228.279,184.24
					c0-0.27,0.221-0.5,0.5-0.5l0,0c0.271,0,0.5,0.23,0.5,0.5l0,0c0,0.28-0.229,0.5-0.5,0.5l0,0
					C228.5,184.74,228.279,184.52,228.279,184.24z M228.279,178.29c0-0.28,0.221-0.5,0.5-0.5l0,0c0.271,0,0.5,0.22,0.5,0.5l0,0
					c0,0.28-0.229,0.5-0.5,0.5l0,0C228.5,178.79,228.279,178.57,228.279,178.29z M228.279,172.33c0-0.27,0.221-0.5,0.5-0.5l0,0
					c0.271,0,0.5,0.23,0.5,0.5l0,0c0,0.28-0.229,0.5-0.5,0.5l0,0C228.5,172.83,228.279,172.61,228.279,172.33z M228.279,166.38
					c0-0.28,0.221-0.5,0.5-0.5l0,0c0.271,0,0.5,0.22,0.5,0.5l0,0c0,0.27-0.229,0.5-0.5,0.5l0,0
					C228.5,166.88,228.279,166.65,228.279,166.38z M228.279,160.42c0-0.27,0.221-0.5,0.5-0.5l0,0c0.271,0,0.5,0.23,0.5,0.5l0,0
					c0,0.28-0.229,0.5-0.5,0.5l0,0C228.5,160.92,228.279,160.7,228.279,160.42z M228.279,154.47c0-0.28,0.221-0.5,0.5-0.5l0,0
					c0.271,0,0.5,0.22,0.5,0.5l0,0c0,0.27-0.229,0.5-0.5,0.5l0,0C228.5,154.97,228.279,154.74,228.279,154.47z M228.279,148.51
					c0-0.28,0.221-0.5,0.5-0.5l0,0c0.271,0,0.5,0.22,0.5,0.5l0,0c0,0.28-0.229,0.5-0.5,0.5l0,0
					C228.5,149.01,228.279,148.79,228.279,148.51z"/>
				<path style="fill:#E0E0E0;" d="M228.779,143.06c-0.069,0-0.13-0.02-0.189-0.04c-0.061-0.03-0.12-0.07-0.17-0.11
					c-0.04-0.05-0.08-0.1-0.101-0.16c-0.029-0.06-0.04-0.13-0.04-0.19c0-0.07,0.011-0.13,0.04-0.2c0.02-0.06,0.061-0.11,0.101-0.16
					c0.05-0.04,0.109-0.08,0.17-0.11c0.12-0.05,0.26-0.05,0.38,0c0.06,0.03,0.12,0.07,0.16,0.11c0.09,0.1,0.149,0.23,0.149,0.36
					c0,0.13-0.06,0.26-0.149,0.35C229.04,143,228.91,143.06,228.779,143.06z"/>
				<path style="fill:#E0E0E0;" d="M365.989,142.56c0-0.28,0.221-0.51,0.5-0.51l0,0c0.271,0,0.5,0.23,0.5,0.51l0,0
					c0,0.27-0.229,0.5-0.5,0.5l0,0C366.21,143.06,365.989,142.83,365.989,142.56z M360,142.56c0-0.28,0.22-0.51,0.5-0.51l0,0
					c0.279,0,0.5,0.23,0.5,0.51l0,0c0,0.27-0.221,0.5-0.5,0.5l0,0C360.22,143.06,360,142.83,360,142.56z M354.01,142.56
					c0-0.28,0.229-0.51,0.5-0.51l0,0c0.28,0,0.5,0.23,0.5,0.51l0,0c0,0.27-0.22,0.5-0.5,0.5l0,0
					C354.239,143.06,354.01,142.83,354.01,142.56z M348.029,142.56c0-0.28,0.221-0.51,0.5-0.51l0,0c0.271,0,0.49,0.23,0.49,0.51l0,0
					c0,0.27-0.22,0.5-0.49,0.5l0,0C348.25,143.06,348.029,142.83,348.029,142.56z M342.04,142.56c0-0.28,0.22-0.51,0.5-0.51l0,0
					c0.27,0,0.5,0.23,0.5,0.51l0,0c0,0.27-0.23,0.5-0.5,0.5l0,0C342.26,143.06,342.04,142.83,342.04,142.56z M336.05,142.56
					c0-0.28,0.22-0.51,0.5-0.51l0,0c0.28,0,0.5,0.23,0.5,0.51l0,0c0,0.27-0.22,0.5-0.5,0.5l0,0
					C336.27,143.06,336.05,142.83,336.05,142.56z M330.06,142.56c0-0.28,0.23-0.51,0.5-0.51l0,0c0.28,0,0.5,0.23,0.5,0.51l0,0
					c0,0.27-0.22,0.5-0.5,0.5l0,0C330.29,143.06,330.06,142.83,330.06,142.56z M324.08,142.56c0-0.28,0.22-0.51,0.5-0.51l0,0
					c0.27,0,0.5,0.23,0.5,0.51l0,0c0,0.27-0.23,0.5-0.5,0.5l0,0C324.3,143.06,324.08,142.83,324.08,142.56z M318.09,142.56
					c0-0.28,0.22-0.51,0.5-0.51l0,0c0.27,0,0.5,0.23,0.5,0.51l0,0c0,0.27-0.23,0.5-0.5,0.5l0,0
					C318.31,143.06,318.09,142.83,318.09,142.56z M312.1,142.56c0-0.28,0.23-0.51,0.5-0.51l0,0c0.28,0,0.5,0.23,0.5,0.51l0,0
					c0,0.27-0.22,0.5-0.5,0.5l0,0C312.33,143.06,312.1,142.83,312.1,142.56z M306.109,142.56c0-0.28,0.23-0.51,0.511-0.51l0,0
					c0.27,0,0.489,0.23,0.489,0.51l0,0c0,0.27-0.22,0.5-0.489,0.5l0,0C306.34,143.06,306.109,142.83,306.109,142.56z M300.13,142.56
					c0-0.28,0.22-0.51,0.5-0.51l0,0c0.27,0,0.5,0.23,0.5,0.51l0,0c0,0.27-0.23,0.5-0.5,0.5l0,0
					C300.35,143.06,300.13,142.83,300.13,142.56z M294.14,142.56c0-0.28,0.22-0.51,0.5-0.51l0,0c0.28,0,0.5,0.23,0.5,0.51l0,0
					c0,0.27-0.22,0.5-0.5,0.5l0,0C294.359,143.06,294.14,142.83,294.14,142.56z M288.149,142.56c0-0.28,0.23-0.51,0.5-0.51l0,0
					c0.28,0,0.5,0.23,0.5,0.51l0,0c0,0.27-0.22,0.5-0.5,0.5l0,0C288.38,143.06,288.149,142.83,288.149,142.56z M282.16,142.56
					c0-0.28,0.229-0.51,0.5-0.51l0,0c0.279,0,0.51,0.23,0.51,0.51l0,0c0,0.27-0.23,0.5-0.51,0.5l0,0
					C282.39,143.06,282.16,142.83,282.16,142.56z M276.18,142.56c0-0.28,0.22-0.51,0.5-0.51l0,0c0.271,0,0.5,0.23,0.5,0.51l0,0
					c0,0.27-0.229,0.5-0.5,0.5l0,0C276.399,143.06,276.18,142.83,276.18,142.56z M270.19,142.56c0-0.28,0.221-0.51,0.5-0.51l0,0
					c0.27,0,0.5,0.23,0.5,0.51l0,0c0,0.27-0.23,0.5-0.5,0.5l0,0C270.41,143.06,270.19,142.83,270.19,142.56z M264.2,142.56
					c0-0.28,0.229-0.51,0.5-0.51l0,0c0.279,0,0.5,0.23,0.5,0.51l0,0c0,0.27-0.221,0.5-0.5,0.5l0,0
					C264.43,143.06,264.2,142.83,264.2,142.56z M258.22,142.56c0-0.28,0.22-0.51,0.5-0.51l0,0c0.27,0,0.49,0.23,0.49,0.51l0,0
					c0,0.27-0.221,0.5-0.49,0.5l0,0C258.44,143.06,258.22,142.83,258.22,142.56z M252.23,142.56c0-0.28,0.221-0.51,0.5-0.51l0,0
					c0.27,0,0.5,0.23,0.5,0.51l0,0c0,0.27-0.23,0.5-0.5,0.5l0,0C252.45,143.06,252.23,142.83,252.23,142.56z M246.239,142.56
					c0-0.28,0.221-0.51,0.5-0.51l0,0c0.28,0,0.5,0.23,0.5,0.51l0,0c0,0.27-0.22,0.5-0.5,0.5l0,0
					C246.46,143.06,246.239,142.83,246.239,142.56z M240.25,142.56c0-0.28,0.23-0.51,0.5-0.51l0,0c0.279,0,0.5,0.23,0.5,0.51l0,0
					c0,0.27-0.221,0.5-0.5,0.5l0,0C240.48,143.06,240.25,142.83,240.25,142.56z M234.27,142.56c0-0.28,0.22-0.51,0.5-0.51l0,0
					c0.27,0,0.5,0.23,0.5,0.51l0,0c0,0.27-0.23,0.5-0.5,0.5l0,0C234.489,143.06,234.27,142.83,234.27,142.56z"/>
				<path style="fill:#E0E0E0;" d="M372.479,143.06c-0.14,0-0.27-0.06-0.359-0.15c-0.091-0.1-0.141-0.22-0.141-0.35
					c0-0.13,0.05-0.26,0.141-0.36c0.05-0.04,0.1-0.08,0.159-0.11c0.19-0.07,0.421-0.03,0.551,0.11c0.04,0.05,0.08,0.1,0.109,0.17
					c0.02,0.06,0.03,0.12,0.03,0.19c0,0.13-0.05,0.26-0.14,0.35C372.739,143,372.609,143.06,372.479,143.06z"/>
				<path style="fill:#E0E0E0;" d="M371.97,136.78c0-0.27,0.23-0.49,0.5-0.49l0,0c0.28,0,0.51,0.22,0.51,0.49l0,0
					c0,0.28-0.229,0.5-0.51,0.5l0,0C372.2,137.28,371.97,137.06,371.97,136.78z M371.97,131.01c0-0.27,0.23-0.5,0.5-0.5l0,0
					c0.28,0,0.51,0.23,0.51,0.5l0,0c0,0.28-0.229,0.51-0.51,0.51l0,0C372.2,131.52,371.97,131.29,371.97,131.01z M371.97,125.24
					c0-0.27,0.23-0.5,0.5-0.5l0,0c0.28,0,0.51,0.23,0.51,0.5l0,0c0,0.28-0.229,0.5-0.51,0.5l0,0
					C372.2,125.74,371.97,125.52,371.97,125.24z M371.97,119.47c0-0.27,0.23-0.5,0.5-0.5l0,0c0.28,0,0.51,0.23,0.51,0.5l0,0
					c0,0.28-0.229,0.5-0.51,0.5l0,0C372.2,119.97,371.97,119.75,371.97,119.47z M371.97,113.7c0-0.27,0.23-0.5,0.5-0.5l0,0
					c0.28,0,0.51,0.23,0.51,0.5l0,0c0,0.28-0.229,0.5-0.51,0.5l0,0C372.2,114.2,371.97,113.98,371.97,113.7z M371.97,107.93
					c0-0.27,0.23-0.5,0.5-0.5l0,0c0.28,0,0.51,0.23,0.51,0.5l0,0c0,0.28-0.229,0.5-0.51,0.5l0,0
					C372.2,108.43,371.97,108.21,371.97,107.93z"/>
				<path style="fill:#E0E0E0;" d="M372.479,102.66c-0.14,0-0.26-0.05-0.359-0.15c-0.091-0.09-0.141-0.22-0.141-0.35
					c0-0.07,0.01-0.13,0.03-0.19c0.03-0.06,0.07-0.12,0.11-0.16c0.19-0.19,0.529-0.19,0.71,0c0.09,0.09,0.14,0.22,0.14,0.35
					c0,0.07-0.01,0.13-0.03,0.19c-0.029,0.06-0.069,0.12-0.109,0.16c-0.051,0.05-0.101,0.09-0.16,0.11
					C372.609,102.65,372.54,102.66,372.479,102.66z"/>
			</g>
			<g>
				<path style="fill:#E0E0E0;" d="M165.8,290.83c-0.14,0-0.271-0.05-0.36-0.14c-0.05-0.05-0.08-0.1-0.109-0.17
					c-0.02-0.06-0.04-0.12-0.04-0.19c0-0.13,0.06-0.26,0.15-0.35c0.141-0.14,0.36-0.18,0.55-0.11c0.061,0.03,0.11,0.06,0.16,0.11
					c0.09,0.09,0.141,0.22,0.141,0.35c0,0.07-0.011,0.13-0.03,0.19c-0.03,0.07-0.07,0.12-0.11,0.17c-0.05,0.04-0.1,0.08-0.16,0.1
					C165.93,290.82,165.859,290.83,165.8,290.83z"/>
				<path style="fill:#E0E0E0;" d="M165.3,314.87c0-0.28,0.22-0.5,0.5-0.5l0,0c0.27,0,0.49,0.22,0.49,0.5l0,0
					c0,0.27-0.221,0.5-0.49,0.5l0,0C165.52,315.37,165.3,315.14,165.3,314.87z M165.3,308.73c0-0.27,0.22-0.5,0.5-0.5l0,0
					c0.27,0,0.49,0.23,0.49,0.5l0,0c0,0.28-0.221,0.5-0.49,0.5l0,0C165.52,309.23,165.3,309.01,165.3,308.73z M165.3,302.6
					c0-0.27,0.22-0.5,0.5-0.5l0,0c0.27,0,0.49,0.23,0.49,0.5l0,0c0,0.27-0.221,0.5-0.49,0.5l0,0
					C165.52,303.1,165.3,302.87,165.3,302.6z M165.3,296.47c0-0.28,0.22-0.5,0.5-0.5l0,0c0.27,0,0.49,0.22,0.49,0.5l0,0
					c0,0.27-0.221,0.5-0.49,0.5l0,0C165.52,296.97,165.3,296.74,165.3,296.47z"/>
				<path style="fill:#E0E0E0;" d="M165.8,321.5c-0.14,0-0.271-0.05-0.36-0.15c-0.05-0.04-0.08-0.1-0.109-0.16
					c-0.02-0.06-0.04-0.12-0.04-0.19c0-0.06,0.02-0.13,0.04-0.19c0.029-0.06,0.06-0.12,0.109-0.16c0.141-0.14,0.36-0.19,0.55-0.11
					c0.061,0.02,0.11,0.06,0.16,0.11c0.04,0.04,0.08,0.1,0.11,0.16c0.02,0.06,0.03,0.13,0.03,0.19c0,0.07-0.011,0.13-0.03,0.19
					c-0.03,0.06-0.07,0.12-0.11,0.16c-0.05,0.05-0.1,0.09-0.16,0.11C165.93,321.49,165.859,321.5,165.8,321.5z"/>
				<path style="fill:#E0E0E0;" d="M222.55,321c0-0.28,0.229-0.5,0.5-0.5l0,0c0.28,0,0.5,0.22,0.5,0.5l0,0c0,0.28-0.22,0.5-0.5,0.5
					l0,0C222.779,321.5,222.55,321.28,222.55,321z M216.83,321c0-0.28,0.22-0.5,0.5-0.5l0,0c0.27,0,0.5,0.22,0.5,0.5l0,0
					c0,0.28-0.23,0.5-0.5,0.5l0,0C217.05,321.5,216.83,321.28,216.83,321z M211.1,321c0-0.28,0.23-0.5,0.5-0.5l0,0
					c0.28,0,0.5,0.22,0.5,0.5l0,0c0,0.28-0.22,0.5-0.5,0.5l0,0C211.33,321.5,211.1,321.28,211.1,321z M205.38,321
					c0-0.28,0.22-0.5,0.5-0.5l0,0c0.27,0,0.5,0.22,0.5,0.5l0,0c0,0.28-0.23,0.5-0.5,0.5l0,0C205.6,321.5,205.38,321.28,205.38,321z
					 M199.649,321c0-0.28,0.221-0.5,0.5-0.5l0,0c0.271,0,0.5,0.22,0.5,0.5l0,0c0,0.28-0.229,0.5-0.5,0.5l0,0
					C199.87,321.5,199.649,321.28,199.649,321z M193.92,321c0-0.28,0.229-0.5,0.51-0.5l0,0c0.27,0,0.49,0.22,0.49,0.5l0,0
					c0,0.28-0.22,0.5-0.49,0.5l0,0C194.149,321.5,193.92,321.28,193.92,321z M188.2,321c0-0.28,0.22-0.5,0.5-0.5l0,0
					c0.27,0,0.5,0.22,0.5,0.5l0,0c0,0.28-0.23,0.5-0.5,0.5l0,0C188.42,321.5,188.2,321.28,188.2,321z M182.47,321
					c0-0.28,0.23-0.5,0.5-0.5l0,0c0.28,0,0.5,0.22,0.5,0.5l0,0c0,0.28-0.22,0.5-0.5,0.5l0,0C182.7,321.5,182.47,321.28,182.47,321z
					 M176.75,321c0-0.28,0.22-0.5,0.5-0.5l0,0c0.27,0,0.5,0.22,0.5,0.5l0,0c0,0.28-0.23,0.5-0.5,0.5l0,0
					C176.97,321.5,176.75,321.28,176.75,321z M171.02,321c0-0.28,0.23-0.5,0.5-0.5l0,0c0.28,0,0.5,0.22,0.5,0.5l0,0
					c0,0.28-0.22,0.5-0.5,0.5l0,0C171.25,321.5,171.02,321.28,171.02,321z"/>
				<path style="fill:#E0E0E0;" d="M228.779,321.5c-0.069,0-0.13-0.01-0.189-0.04c-0.061-0.02-0.12-0.06-0.17-0.11
					c-0.04-0.04-0.08-0.1-0.101-0.16c-0.029-0.06-0.04-0.12-0.04-0.19c0-0.13,0.051-0.26,0.141-0.35c0.05-0.05,0.109-0.09,0.17-0.11
					c0.12-0.05,0.26-0.05,0.38,0c0.06,0.02,0.12,0.06,0.16,0.11c0.09,0.09,0.149,0.22,0.149,0.35c0,0.06-0.01,0.13-0.04,0.19
					c-0.029,0.06-0.06,0.12-0.109,0.16c-0.04,0.05-0.101,0.09-0.16,0.11C228.91,321.49,228.84,321.5,228.779,321.5z"/>
				<path style="fill:#E0E0E0;" d="M228.279,315.18c0-0.28,0.221-0.5,0.5-0.5l0,0c0.271,0,0.5,0.22,0.5,0.5l0,0
					c0,0.27-0.229,0.5-0.5,0.5l0,0C228.5,315.68,228.279,315.45,228.279,315.18z M228.279,309.36c0-0.28,0.221-0.51,0.5-0.51l0,0
					c0.271,0,0.5,0.23,0.5,0.51l0,0c0,0.27-0.229,0.5-0.5,0.5l0,0C228.5,309.86,228.279,309.63,228.279,309.36z M228.279,303.53
					c0-0.27,0.221-0.5,0.5-0.5l0,0c0.271,0,0.5,0.23,0.5,0.5l0,0c0,0.28-0.229,0.5-0.5,0.5l0,0
					C228.5,304.03,228.279,303.81,228.279,303.53z M228.279,297.71c0-0.27,0.221-0.5,0.5-0.5l0,0c0.271,0,0.5,0.23,0.5,0.5l0,0
					c0,0.28-0.229,0.5-0.5,0.5l0,0C228.5,298.21,228.279,297.99,228.279,297.71z M228.279,291.89c0-0.28,0.221-0.5,0.5-0.5l0,0
					c0.271,0,0.5,0.22,0.5,0.5l0,0c0,0.27-0.229,0.5-0.5,0.5l0,0C228.5,292.39,228.279,292.16,228.279,291.89z M228.279,286.07
					c0-0.28,0.221-0.5,0.5-0.5l0,0c0.271,0,0.5,0.22,0.5,0.5l0,0c0,0.27-0.229,0.5-0.5,0.5l0,0
					C228.5,286.57,228.279,286.34,228.279,286.07z M228.279,280.25c0-0.28,0.221-0.5,0.5-0.5l0,0c0.271,0,0.5,0.22,0.5,0.5l0,0
					c0,0.27-0.229,0.5-0.5,0.5l0,0C228.5,280.75,228.279,280.52,228.279,280.25z M228.279,274.42c0-0.27,0.221-0.5,0.5-0.5l0,0
					c0.271,0,0.5,0.23,0.5,0.5l0,0c0,0.28-0.229,0.5-0.5,0.5l0,0C228.5,274.92,228.279,274.7,228.279,274.42z M228.279,268.6
					c0-0.28,0.221-0.5,0.5-0.5l0,0c0.271,0,0.5,0.22,0.5,0.5l0,0c0,0.28-0.229,0.5-0.5,0.5l0,0
					C228.5,269.1,228.279,268.88,228.279,268.6z M228.279,262.78c0-0.28,0.221-0.5,0.5-0.5l0,0c0.271,0,0.5,0.22,0.5,0.5l0,0
					c0,0.27-0.229,0.5-0.5,0.5l0,0C228.5,263.28,228.279,263.05,228.279,262.78z M228.279,256.96c0-0.28,0.221-0.5,0.5-0.5l0,0
					c0.271,0,0.5,0.22,0.5,0.5l0,0c0,0.27-0.229,0.5-0.5,0.5l0,0C228.5,257.46,228.279,257.23,228.279,256.96z M228.279,251.13
					c0-0.27,0.221-0.5,0.5-0.5l0,0c0.271,0,0.5,0.23,0.5,0.5l0,0c0,0.28-0.229,0.5-0.5,0.5l0,0
					C228.5,251.63,228.279,251.41,228.279,251.13z M228.279,245.31c0-0.28,0.221-0.5,0.5-0.5l0,0c0.271,0,0.5,0.22,0.5,0.5l0,0
					c0,0.28-0.229,0.5-0.5,0.5l0,0C228.5,245.81,228.279,245.59,228.279,245.31z M228.279,239.49c0-0.28,0.221-0.5,0.5-0.5l0,0
					c0.271,0,0.5,0.22,0.5,0.5l0,0c0,0.28-0.229,0.5-0.5,0.5l0,0C228.5,239.99,228.279,239.77,228.279,239.49z"/>
				<path style="fill:#E0E0E0;" d="M228.779,234.17c-0.069,0-0.13-0.02-0.189-0.04c-0.061-0.03-0.12-0.06-0.17-0.11
					c-0.04-0.05-0.08-0.1-0.101-0.16c-0.029-0.06-0.04-0.13-0.04-0.19c0-0.14,0.051-0.26,0.141-0.36c0.05-0.04,0.109-0.08,0.17-0.1
					c0.12-0.05,0.26-0.05,0.38,0c0.06,0.02,0.12,0.06,0.16,0.1c0.09,0.1,0.149,0.23,0.149,0.36c0,0.06-0.01,0.13-0.04,0.19
					c-0.029,0.06-0.06,0.11-0.109,0.16c-0.04,0.04-0.101,0.08-0.16,0.11C228.91,234.15,228.84,234.17,228.779,234.17z"/>
				<path style="fill:#E0E0E0;" d="M306.91,233.67c0-0.28,0.229-0.5,0.5-0.5l0,0c0.279,0,0.5,0.22,0.5,0.5l0,0
					c0,0.27-0.221,0.5-0.5,0.5l0,0C307.14,234.17,306.91,233.94,306.91,233.67z M300.859,233.67c0-0.28,0.23-0.5,0.5-0.5l0,0
					c0.28,0,0.511,0.22,0.511,0.5l0,0c0,0.27-0.23,0.5-0.511,0.5l0,0C301.09,234.17,300.859,233.94,300.859,233.67z M294.81,233.67
					c0-0.28,0.23-0.5,0.5-0.5l0,0c0.28,0,0.5,0.22,0.5,0.5l0,0c0,0.27-0.22,0.5-0.5,0.5l0,0
					C295.04,234.17,294.81,233.94,294.81,233.67z M288.77,233.67c0-0.28,0.22-0.5,0.49-0.5l0,0c0.28,0,0.5,0.22,0.5,0.5l0,0
					c0,0.27-0.22,0.5-0.5,0.5l0,0C288.989,234.17,288.77,233.94,288.77,233.67z M282.72,233.67c0-0.28,0.22-0.5,0.5-0.5l0,0
					c0.27,0,0.5,0.22,0.5,0.5l0,0c0,0.27-0.23,0.5-0.5,0.5l0,0C282.94,234.17,282.72,233.94,282.72,233.67z M276.67,233.67
					c0-0.28,0.22-0.5,0.5-0.5l0,0c0.27,0,0.5,0.22,0.5,0.5l0,0c0,0.27-0.23,0.5-0.5,0.5l0,0
					C276.89,234.17,276.67,233.94,276.67,233.67z M270.62,233.67c0-0.28,0.22-0.5,0.5-0.5l0,0c0.27,0,0.5,0.22,0.5,0.5l0,0
					c0,0.27-0.23,0.5-0.5,0.5l0,0C270.84,234.17,270.62,233.94,270.62,233.67z M264.569,233.67c0-0.28,0.23-0.5,0.5-0.5l0,0
					c0.28,0,0.5,0.22,0.5,0.5l0,0c0,0.27-0.22,0.5-0.5,0.5l0,0C264.8,234.17,264.569,233.94,264.569,233.67z M258.52,233.67
					c0-0.28,0.22-0.5,0.5-0.5l0,0c0.28,0,0.5,0.22,0.5,0.5l0,0c0,0.27-0.22,0.5-0.5,0.5l0,0
					C258.739,234.17,258.52,233.94,258.52,233.67z M252.47,233.67c0-0.28,0.23-0.5,0.5-0.5l0,0c0.28,0,0.5,0.22,0.5,0.5l0,0
					c0,0.27-0.22,0.5-0.5,0.5l0,0C252.7,234.17,252.47,233.94,252.47,233.67z M246.42,233.67c0-0.28,0.229-0.5,0.5-0.5l0,0
					c0.28,0,0.5,0.22,0.5,0.5l0,0c0,0.27-0.22,0.5-0.5,0.5l0,0C246.649,234.17,246.42,233.94,246.42,233.67z M240.38,233.67
					c0-0.28,0.22-0.5,0.5-0.5l0,0c0.27,0,0.5,0.22,0.5,0.5l0,0c0,0.27-0.23,0.5-0.5,0.5l0,0
					C240.6,234.17,240.38,233.94,240.38,233.67z M234.33,233.67c0-0.28,0.22-0.5,0.5-0.5l0,0c0.27,0,0.5,0.22,0.5,0.5l0,0
					c0,0.27-0.23,0.5-0.5,0.5l0,0C234.55,234.17,234.33,233.94,234.33,233.67z"/>
				<path style="fill:#E0E0E0;" d="M313.46,234.17c-0.13,0-0.26-0.06-0.351-0.15c-0.05-0.05-0.08-0.1-0.109-0.16
					c-0.021-0.06-0.04-0.13-0.04-0.19c0-0.07,0.02-0.13,0.04-0.19c0.029-0.07,0.06-0.12,0.109-0.17c0.04-0.04,0.101-0.08,0.16-0.1
					c0.13-0.06,0.26-0.06,0.38,0c0.061,0.02,0.12,0.06,0.17,0.1c0.04,0.05,0.08,0.1,0.101,0.17c0.03,0.06,0.04,0.12,0.04,0.19
					c0,0.13-0.05,0.26-0.141,0.35C313.72,234.11,313.59,234.17,313.46,234.17z"/>
				<path style="fill:#E0E0E0;" d="M312.96,227.36c0-0.28,0.23-0.5,0.5-0.5l0,0c0.279,0,0.5,0.22,0.5,0.5l0,0
					c0,0.27-0.221,0.5-0.5,0.5l0,0C313.19,227.86,312.96,227.63,312.96,227.36z M312.96,221.05c0-0.28,0.23-0.5,0.5-0.5l0,0
					c0.279,0,0.5,0.22,0.5,0.5l0,0c0,0.27-0.221,0.49-0.5,0.49l0,0C313.19,221.54,312.96,221.32,312.96,221.05z M312.96,214.73
					c0-0.27,0.23-0.5,0.5-0.5l0,0c0.279,0,0.5,0.23,0.5,0.5l0,0c0,0.28-0.221,0.5-0.5,0.5l0,0
					C313.19,215.23,312.96,215.01,312.96,214.73z M312.96,208.42c0-0.27,0.23-0.5,0.5-0.5l0,0c0.279,0,0.5,0.23,0.5,0.5l0,0
					c0,0.28-0.221,0.5-0.5,0.5l0,0C313.19,208.92,312.96,208.7,312.96,208.42z"/>
				<path style="fill:#E0E0E0;" d="M313.46,202.61c-0.13,0-0.26-0.05-0.351-0.14c-0.05-0.05-0.08-0.11-0.109-0.17
					c-0.021-0.06-0.04-0.12-0.04-0.19c0-0.06,0.02-0.13,0.04-0.19c0.029-0.06,0.06-0.12,0.109-0.16c0.04-0.05,0.101-0.08,0.16-0.11
					c0.13-0.05,0.26-0.05,0.38,0c0.07,0.03,0.12,0.06,0.17,0.11c0.04,0.04,0.08,0.1,0.101,0.16c0.03,0.06,0.04,0.13,0.04,0.19
					c0,0.13-0.05,0.26-0.141,0.36C313.72,202.56,313.59,202.61,313.46,202.61z"/>
			</g>
			<g>
				<path style="fill:#E0E0E0;" d="M372.479,313.17c-0.14,0-0.27-0.06-0.359-0.15c-0.091-0.09-0.141-0.22-0.141-0.35
					c0-0.13,0.05-0.26,0.141-0.36c0.14-0.13,0.359-0.18,0.55-0.1c0.06,0.02,0.109,0.06,0.16,0.1c0.04,0.05,0.08,0.1,0.109,0.17
					c0.02,0.06,0.03,0.12,0.03,0.19c0,0.13-0.05,0.26-0.14,0.35C372.739,313.11,372.609,313.17,372.479,313.17z"/>
				<path style="fill:#E0E0E0;" d="M371.97,347.24c0-0.28,0.23-0.5,0.5-0.5l0,0c0.28,0,0.51,0.22,0.51,0.5l0,0
					c0,0.28-0.229,0.5-0.51,0.5l0,0C372.2,347.74,371.97,347.52,371.97,347.24z M371.97,341.48c0-0.28,0.23-0.5,0.5-0.5l0,0
					c0.28,0,0.51,0.22,0.51,0.5l0,0c0,0.27-0.229,0.5-0.51,0.5l0,0C372.2,341.98,371.97,341.75,371.97,341.48z M371.97,335.71
					c0-0.27,0.23-0.5,0.5-0.5l0,0c0.28,0,0.51,0.23,0.51,0.5l0,0c0,0.28-0.229,0.51-0.51,0.51l0,0
					C372.2,336.22,371.97,335.99,371.97,335.71z M371.97,329.95c0-0.27,0.23-0.5,0.5-0.5l0,0c0.28,0,0.51,0.23,0.51,0.5l0,0
					c0,0.28-0.229,0.5-0.51,0.5l0,0C372.2,330.45,371.97,330.23,371.97,329.95z M371.97,324.19c0-0.28,0.23-0.5,0.5-0.5l0,0
					c0.28,0,0.51,0.22,0.51,0.5l0,0c0,0.28-0.229,0.5-0.51,0.5l0,0C372.2,324.69,371.97,324.47,371.97,324.19z M371.97,318.43
					c0-0.28,0.23-0.5,0.5-0.5l0,0c0.28,0,0.51,0.22,0.51,0.5l0,0c0,0.27-0.229,0.5-0.51,0.5l0,0
					C372.2,318.93,371.97,318.7,371.97,318.43z"/>
				<path style="fill:#E0E0E0;" d="M372.479,353.5c-0.14,0-0.26-0.05-0.359-0.15c-0.091-0.09-0.141-0.22-0.141-0.35
					c0-0.07,0.01-0.13,0.03-0.19c0.03-0.06,0.07-0.12,0.11-0.16c0.19-0.19,0.529-0.19,0.71,0c0.09,0.09,0.14,0.22,0.14,0.35
					c0,0.06-0.01,0.13-0.03,0.19c-0.029,0.06-0.069,0.12-0.109,0.16c-0.051,0.05-0.101,0.09-0.16,0.11
					C372.609,353.49,372.54,353.5,372.479,353.5z"/>
				<path style="fill:#E0E0E0;" d="M365.989,353c0-0.28,0.221-0.5,0.5-0.5l0,0c0.271,0,0.5,0.22,0.5,0.5l0,0
					c0,0.28-0.229,0.5-0.5,0.5l0,0C366.21,353.5,365.989,353.28,365.989,353z M360,353c0-0.28,0.22-0.5,0.5-0.5l0,0
					c0.27,0,0.5,0.22,0.5,0.5l0,0c0,0.28-0.23,0.5-0.5,0.5l0,0C360.22,353.5,360,353.28,360,353z M354.01,353
					c0-0.28,0.22-0.5,0.5-0.5l0,0c0.28,0,0.5,0.22,0.5,0.5l0,0c0,0.28-0.22,0.5-0.5,0.5l0,0C354.229,353.5,354.01,353.28,354.01,353
					z M348.02,353c0-0.28,0.23-0.5,0.5-0.5l0,0c0.28,0,0.5,0.22,0.5,0.5l0,0c0,0.28-0.22,0.5-0.5,0.5l0,0
					C348.25,353.5,348.02,353.28,348.02,353z M342.04,353c0-0.28,0.22-0.5,0.5-0.5l0,0c0.27,0,0.5,0.22,0.5,0.5l0,0
					c0,0.28-0.23,0.5-0.5,0.5l0,0C342.26,353.5,342.04,353.28,342.04,353z M336.05,353c0-0.28,0.22-0.5,0.5-0.5l0,0
					c0.27,0,0.5,0.22,0.5,0.5l0,0c0,0.28-0.23,0.5-0.5,0.5l0,0C336.27,353.5,336.05,353.28,336.05,353z M330.06,353
					c0-0.28,0.23-0.5,0.5-0.5l0,0c0.28,0,0.5,0.22,0.5,0.5l0,0c0,0.28-0.22,0.5-0.5,0.5l0,0C330.29,353.5,330.06,353.28,330.06,353z
					 M324.069,353c0-0.28,0.23-0.5,0.511-0.5l0,0c0.27,0,0.5,0.22,0.5,0.5l0,0c0,0.28-0.23,0.5-0.5,0.5l0,0
					C324.3,353.5,324.069,353.28,324.069,353z M318.09,353c0-0.28,0.22-0.5,0.5-0.5l0,0c0.27,0,0.5,0.22,0.5,0.5l0,0
					c0,0.28-0.23,0.5-0.5,0.5l0,0C318.31,353.5,318.09,353.28,318.09,353z M312.1,353c0-0.28,0.22-0.5,0.5-0.5l0,0
					c0.28,0,0.5,0.22,0.5,0.5l0,0c0,0.28-0.22,0.5-0.5,0.5l0,0C312.319,353.5,312.1,353.28,312.1,353z M306.109,353
					c0-0.28,0.23-0.5,0.5-0.5l0,0c0.28,0,0.5,0.22,0.5,0.5l0,0c0,0.28-0.22,0.5-0.5,0.5l0,0
					C306.34,353.5,306.109,353.28,306.109,353z M300.12,353c0-0.28,0.23-0.5,0.5-0.5l0,0c0.279,0,0.51,0.22,0.51,0.5l0,0
					c0,0.28-0.23,0.5-0.51,0.5l0,0C300.35,353.5,300.12,353.28,300.12,353z M294.14,353c0-0.28,0.22-0.5,0.5-0.5l0,0
					c0.271,0,0.5,0.22,0.5,0.5l0,0c0,0.28-0.229,0.5-0.5,0.5l0,0C294.359,353.5,294.14,353.28,294.14,353z M288.149,353
					c0-0.28,0.23-0.5,0.5-0.5l0,0c0.27,0,0.5,0.22,0.5,0.5l0,0c0,0.28-0.23,0.5-0.5,0.5l0,0
					C288.38,353.5,288.149,353.28,288.149,353z M282.16,353c0-0.28,0.229-0.5,0.5-0.5l0,0c0.279,0,0.5,0.22,0.5,0.5l0,0
					c0,0.28-0.221,0.5-0.5,0.5l0,0C282.39,353.5,282.16,353.28,282.16,353z M276.18,353c0-0.28,0.22-0.5,0.5-0.5l0,0
					c0.271,0,0.5,0.22,0.5,0.5l0,0c0,0.28-0.229,0.5-0.5,0.5l0,0C276.399,353.5,276.18,353.28,276.18,353z M270.19,353
					c0-0.28,0.221-0.5,0.5-0.5l0,0c0.27,0,0.5,0.22,0.5,0.5l0,0c0,0.28-0.23,0.5-0.5,0.5l0,0C270.41,353.5,270.19,353.28,270.19,353
					z M264.2,353c0-0.28,0.22-0.5,0.5-0.5l0,0c0.279,0,0.5,0.22,0.5,0.5l0,0c0,0.28-0.221,0.5-0.5,0.5l0,0
					C264.42,353.5,264.2,353.28,264.2,353z M258.22,353c0-0.28,0.22-0.5,0.49-0.5l0,0c0.279,0,0.5,0.22,0.5,0.5l0,0
					c0,0.28-0.221,0.5-0.5,0.5l0,0C258.44,353.5,258.22,353.28,258.22,353z M252.23,353c0-0.28,0.221-0.5,0.5-0.5l0,0
					c0.27,0,0.5,0.22,0.5,0.5l0,0c0,0.28-0.23,0.5-0.5,0.5l0,0C252.45,353.5,252.23,353.28,252.23,353z M246.239,353
					c0-0.28,0.221-0.5,0.5-0.5l0,0c0.27,0,0.5,0.22,0.5,0.5l0,0c0,0.28-0.23,0.5-0.5,0.5l0,0
					C246.46,353.5,246.239,353.28,246.239,353z M240.25,353c0-0.28,0.23-0.5,0.5-0.5l0,0c0.279,0,0.5,0.22,0.5,0.5l0,0
					c0,0.28-0.221,0.5-0.5,0.5l0,0C240.48,353.5,240.25,353.28,240.25,353z M234.26,353c0-0.28,0.23-0.5,0.5-0.5l0,0
					c0.28,0,0.51,0.22,0.51,0.5l0,0c0,0.28-0.23,0.5-0.51,0.5l0,0C234.489,353.5,234.26,353.28,234.26,353z"/>
				<path style="fill:#E0E0E0;" d="M228.779,353.5c-0.069,0-0.13-0.01-0.189-0.04c-0.061-0.02-0.12-0.06-0.17-0.11
					c-0.04-0.04-0.08-0.1-0.101-0.16c-0.029-0.06-0.04-0.13-0.04-0.19c0-0.06,0.011-0.13,0.04-0.19c0.02-0.06,0.061-0.12,0.101-0.16
					c0.05-0.05,0.109-0.09,0.17-0.11c0.12-0.05,0.26-0.05,0.38,0c0.06,0.02,0.12,0.06,0.16,0.11c0.04,0.04,0.08,0.1,0.109,0.16
					c0.02,0.06,0.04,0.13,0.04,0.19c0,0.06-0.02,0.13-0.04,0.19c-0.029,0.06-0.069,0.12-0.109,0.16c-0.04,0.05-0.101,0.09-0.16,0.11
					C228.91,353.49,228.84,353.5,228.779,353.5z"/>
				<path style="fill:#E0E0E0;" d="M228.279,346.6c0-0.28,0.221-0.5,0.5-0.5l0,0c0.271,0,0.5,0.22,0.5,0.5l0,0
					c0,0.28-0.229,0.5-0.5,0.5l0,0C228.5,347.1,228.279,346.88,228.279,346.6z M228.279,340.2c0-0.28,0.221-0.5,0.5-0.5l0,0
					c0.271,0,0.5,0.22,0.5,0.5l0,0c0,0.28-0.229,0.5-0.5,0.5l0,0C228.5,340.7,228.279,340.48,228.279,340.2z M228.279,333.8
					c0-0.28,0.221-0.5,0.5-0.5l0,0c0.271,0,0.5,0.22,0.5,0.5l0,0c0,0.28-0.229,0.5-0.5,0.5l0,0
					C228.5,334.3,228.279,334.08,228.279,333.8z M228.279,327.4c0-0.28,0.221-0.5,0.5-0.5l0,0c0.271,0,0.5,0.22,0.5,0.5l0,0
					c0,0.28-0.229,0.5-0.5,0.5l0,0C228.5,327.9,228.279,327.68,228.279,327.4z"/>
				<path style="fill:#E0E0E0;" d="M228.779,321.5c-0.069,0-0.13-0.01-0.189-0.04c-0.061-0.02-0.12-0.06-0.17-0.11
					c-0.04-0.04-0.08-0.1-0.101-0.16c-0.029-0.06-0.04-0.12-0.04-0.19c0-0.13,0.051-0.26,0.141-0.35c0.05-0.05,0.109-0.09,0.17-0.11
					c0.12-0.05,0.26-0.05,0.38,0c0.06,0.02,0.12,0.06,0.16,0.11c0.09,0.09,0.149,0.22,0.149,0.35c0,0.06-0.01,0.13-0.04,0.19
					c-0.029,0.06-0.06,0.12-0.109,0.16c-0.04,0.05-0.101,0.09-0.16,0.11C228.91,321.49,228.84,321.5,228.779,321.5z"/>
			</g>
			<g>
				<path style="fill:#E0E0E0;" d="M228.779,202.61c-0.069,0-0.13-0.01-0.189-0.04c-0.061-0.02-0.12-0.06-0.17-0.11
					c-0.04-0.04-0.08-0.1-0.101-0.16c-0.029-0.06-0.04-0.12-0.04-0.19c0-0.06,0.011-0.13,0.04-0.19c0.02-0.06,0.061-0.12,0.101-0.16
					c0.05-0.05,0.109-0.09,0.17-0.11c0.12-0.05,0.26-0.05,0.38,0c0.06,0.02,0.12,0.06,0.16,0.11c0.04,0.04,0.08,0.1,0.109,0.16
					c0.02,0.06,0.04,0.13,0.04,0.19c0,0.13-0.06,0.26-0.149,0.35c-0.04,0.05-0.101,0.09-0.16,0.11
					C228.91,202.6,228.84,202.61,228.779,202.61z"/>
				<path style="fill:#E0E0E0;" d="M228.279,227.36c0-0.28,0.221-0.51,0.5-0.51l0,0c0.271,0,0.5,0.23,0.5,0.51l0,0
					c0,0.27-0.229,0.5-0.5,0.5l0,0C228.5,227.86,228.279,227.63,228.279,227.36z M228.279,221.05c0-0.28,0.221-0.5,0.5-0.5l0,0
					c0.271,0,0.5,0.22,0.5,0.5l0,0c0,0.27-0.229,0.5-0.5,0.5l0,0C228.5,221.55,228.279,221.32,228.279,221.05z M228.279,214.73
					c0-0.27,0.221-0.5,0.5-0.5l0,0c0.271,0,0.5,0.23,0.5,0.5l0,0c0,0.28-0.229,0.5-0.5,0.5l0,0
					C228.5,215.23,228.279,215.01,228.279,214.73z M228.279,208.42c0-0.27,0.221-0.5,0.5-0.5l0,0c0.271,0,0.5,0.23,0.5,0.5l0,0
					c0,0.28-0.229,0.5-0.5,0.5l0,0C228.5,208.92,228.279,208.7,228.279,208.42z"/>
				<path style="fill:#E0E0E0;" d="M228.779,234.17c-0.069,0-0.13-0.02-0.189-0.04c-0.061-0.03-0.12-0.06-0.17-0.11
					c-0.04-0.05-0.08-0.1-0.101-0.16c-0.029-0.06-0.04-0.13-0.04-0.19c0-0.14,0.051-0.26,0.141-0.36c0.05-0.04,0.109-0.08,0.17-0.1
					c0.12-0.05,0.26-0.05,0.38,0c0.06,0.02,0.12,0.06,0.16,0.1c0.09,0.1,0.149,0.23,0.149,0.36c0,0.06-0.01,0.13-0.04,0.19
					c-0.029,0.06-0.06,0.11-0.109,0.16c-0.04,0.04-0.101,0.08-0.16,0.11C228.91,234.15,228.84,234.17,228.779,234.17z"/>
			</g>
		</g>
	</g>
</g>
<g id="Background_Simple" style="display:none;">
	<g style="display:inline;">
		<path style="fill:#407BFF;" d="M289.04,353.129c85.559-10.985,106.449-61.09,110.542-94.12
			c5.871-47.384-32.122-102.625-128.253-94.138c-70.315,6.208-163.317,37.714-160.565,106.094
			C113.79,346.196,171.69,368.195,289.04,353.129z"/>
		<path style="opacity:0.9;fill:#FFFFFF;" d="M289.04,353.129c85.559-10.985,106.449-61.09,110.542-94.12
			c5.871-47.384-32.122-102.625-128.253-94.138c-70.315,6.208-163.317,37.714-160.565,106.094
			C113.79,346.196,171.69,368.195,289.04,353.129z"/>
	</g>
</g>
<g id="Shadow_1_">
	<ellipse id="_x3C_Path_x3E__146_" style="fill:#F5F5F5;" cx="250" cy="416.238" rx="193.889" ry="11.323"/>
</g>
<g id="Monitors">
	<g>
		<g>
			<g>
				<path style="fill:#407BFF;" d="M123.302,353.483l1.961-34.242c0.115-2.001,1.83-3.623,3.831-3.623h55.564
					c2.001,0,3.53,1.622,3.416,3.623l-1.961,34.242c-0.115,2.001-1.83,3.623-3.831,3.623h-55.564
					C124.716,357.106,123.187,355.484,123.302,353.483z"/>
			</g>
			<g>
				<path style="fill:#FFFFFF;" d="M120.493,353.483l1.961-34.242c0.115-2.001,1.83-3.623,3.831-3.623h57.795
					c2.001,0,3.53,1.622,3.416,3.623l-1.961,34.242c-0.115,2.001-1.83,3.623-3.831,3.623h-57.794
					C121.908,357.106,120.379,355.484,120.493,353.483z"/>
				<path style="opacity:0.3;fill:#407BFF;" d="M120.493,353.483l1.961-34.242c0.115-2.001,1.83-3.623,3.831-3.623h57.795
					c2.001,0,3.53,1.622,3.416,3.623l-1.961,34.242c-0.115,2.001-1.83,3.623-3.831,3.623h-57.794
					C121.908,357.106,120.379,355.484,120.493,353.483z"/>
			</g>
			<g>
				<g>
					<path style="fill:#407BFF;" d="M144.215,364.466v-0.453c0-2.001,1.622-3.623,3.623-3.623h20.899
						c2.001,0,3.623,1.622,3.623,3.623v0.453c0,2.001-1.622,3.623-3.623,3.623h-20.899
						C145.837,368.09,144.215,366.467,144.215,364.466z"/>
				</g>
				<g style="opacity:0.6;">
					<path style="fill:#FFFFFF;" d="M144.215,364.466v-0.453c0-2.001,1.622-3.623,3.623-3.623h20.899
						c2.001,0,3.623,1.622,3.623,3.623v0.453c0,2.001-1.622,3.623-3.623,3.623h-20.899
						C145.837,368.09,144.215,366.467,144.215,364.466z"/>
				</g>
			</g>
			<g>
				<path style="fill:#FFFFFF;" d="M135.629,364.466v-0.453c0-2.001,1.622-3.623,3.623-3.623h23.129
					c2.001,0,3.623,1.622,3.623,3.623v0.453c0,2.001-1.622,3.623-3.623,3.623h-23.129
					C137.251,368.09,135.629,366.467,135.629,364.466z"/>
				<path style="opacity:0.3;fill:#407BFF;" d="M135.629,364.466v-0.453c0-2.001,1.622-3.623,3.623-3.623h23.129
					c2.001,0,3.623,1.622,3.623,3.623v0.453c0,2.001-1.622,3.623-3.623,3.623h-23.129
					C137.251,368.09,135.629,366.467,135.629,364.466z"/>
			</g>
			<path style="opacity:0.9;fill:#FFFFFF;" d="M182.516,355.349h-59.218c-0.882,0-1.557-0.715-1.506-1.598l1.992-34.779
				c0.05-0.882,0.807-1.598,1.689-1.598h59.218c0.883,0,1.557,0.715,1.506,1.598l-1.992,34.779
				C184.156,354.634,183.399,355.349,182.516,355.349z"/>
			<g>
				<polygon style="opacity:0.1;fill:#407BFF;" points="140.365,355.349 128.589,355.349 139.362,317.374 151.138,317.374 				"/>
				<polygon style="opacity:0.1;fill:#407BFF;" points="150.008,355.349 141.781,355.349 152.554,317.374 160.782,317.374 				"/>
				<polygon style="opacity:0.1;fill:#407BFF;" points="167.947,355.349 159.719,355.349 170.492,317.374 178.72,317.374 				"/>
			</g>
		</g>
		<g>
			<g>
				<path style="fill:#407BFF;" d="M219.018,353.483l1.961-34.242c0.115-2.001,1.83-3.623,3.831-3.623h55.564
					c2.001,0,3.53,1.622,3.416,3.623l-1.961,34.242c-0.115,2.001-1.83,3.623-3.831,3.623h-55.564
					C220.433,357.106,218.904,355.484,219.018,353.483z"/>
			</g>
			<g>
				<path style="fill:#FFFFFF;" d="M216.21,353.483l1.961-34.242c0.115-2.001,1.83-3.623,3.831-3.623h57.795
					c2.001,0,3.53,1.622,3.416,3.623l-1.961,34.242c-0.115,2.001-1.83,3.623-3.831,3.623h-57.794
					C217.625,357.106,216.095,355.484,216.21,353.483z"/>
				<path style="opacity:0.3;fill:#407BFF;" d="M216.21,353.483l1.961-34.242c0.115-2.001,1.83-3.623,3.831-3.623h57.795
					c2.001,0,3.53,1.622,3.416,3.623l-1.961,34.242c-0.115,2.001-1.83,3.623-3.831,3.623h-57.794
					C217.625,357.106,216.095,355.484,216.21,353.483z"/>
			</g>
			<g>
				<g>
					<path style="fill:#407BFF;" d="M239.931,364.466v-0.453c0-2.001,1.622-3.623,3.623-3.623h20.899
						c2.001,0,3.623,1.622,3.623,3.623v0.453c0,2.001-1.622,3.623-3.623,3.623h-20.899
						C241.554,368.09,239.931,366.467,239.931,364.466z"/>
				</g>
				<g style="opacity:0.6;">
					<path style="fill:#FFFFFF;" d="M239.931,364.466v-0.453c0-2.001,1.622-3.623,3.623-3.623h20.899
						c2.001,0,3.623,1.622,3.623,3.623v0.453c0,2.001-1.622,3.623-3.623,3.623h-20.899
						C241.554,368.09,239.931,366.467,239.931,364.466z"/>
				</g>
			</g>
			<g>
				<path style="fill:#FFFFFF;" d="M231.346,364.466v-0.453c0-2.001,1.622-3.623,3.623-3.623h23.129
					c2.001,0,3.623,1.622,3.623,3.623v0.453c0,2.001-1.622,3.623-3.623,3.623h-23.129
					C232.968,368.09,231.346,366.467,231.346,364.466z"/>
				<path style="opacity:0.3;fill:#407BFF;" d="M231.346,364.466v-0.453c0-2.001,1.622-3.623,3.623-3.623h23.129
					c2.001,0,3.623,1.622,3.623,3.623v0.453c0,2.001-1.622,3.623-3.623,3.623h-23.129
					C232.968,368.09,231.346,366.467,231.346,364.466z"/>
			</g>
			<path style="opacity:0.9;fill:#FFFFFF;" d="M278.233,355.349h-59.219c-0.883,0-1.557-0.715-1.507-1.598l1.992-34.779
				c0.051-0.882,0.807-1.598,1.69-1.598h59.219c0.883,0,1.557,0.715,1.506,1.598l-1.992,34.779
				C279.872,354.634,279.116,355.349,278.233,355.349z"/>
			<g>
				<polygon style="opacity:0.1;fill:#407BFF;" points="236.081,355.349 224.305,355.349 235.078,317.374 246.854,317.374 				"/>
				<polygon style="opacity:0.1;fill:#407BFF;" points="245.725,355.349 237.497,355.349 248.27,317.374 256.498,317.374 				"/>
				<polygon style="opacity:0.1;fill:#407BFF;" points="263.663,355.349 255.435,355.349 266.208,317.374 274.436,317.374 				"/>
			</g>
		</g>
		<g>
			<g>
				<path style="fill:#407BFF;" d="M314.734,353.483l1.961-34.242c0.115-2.001,1.83-3.623,3.831-3.623h55.564
					c2.001,0,3.53,1.622,3.416,3.623l-1.961,34.242c-0.115,2.001-1.83,3.623-3.831,3.623H318.15
					C316.149,357.106,314.62,355.484,314.734,353.483z"/>
			</g>
			<g>
				<path style="fill:#FFFFFF;" d="M311.926,353.483l1.961-34.242c0.115-2.001,1.83-3.623,3.831-3.623h57.794
					c2.001,0,3.53,1.622,3.416,3.623l-1.961,34.242c-0.115,2.001-1.83,3.623-3.831,3.623h-57.794
					C313.341,357.106,311.812,355.484,311.926,353.483z"/>
				<path style="opacity:0.3;fill:#407BFF;" d="M311.926,353.483l1.961-34.242c0.115-2.001,1.83-3.623,3.831-3.623h57.794
					c2.001,0,3.53,1.622,3.416,3.623l-1.961,34.242c-0.115,2.001-1.83,3.623-3.831,3.623h-57.794
					C313.341,357.106,311.812,355.484,311.926,353.483z"/>
			</g>
			<g>
				<g>
					<path style="fill:#407BFF;" d="M335.648,364.466v-0.453c0-2.001,1.622-3.623,3.623-3.623h20.899
						c2.001,0,3.623,1.622,3.623,3.623v0.453c0,2.001-1.622,3.623-3.623,3.623h-20.899
						C337.27,368.09,335.648,366.467,335.648,364.466z"/>
				</g>
				<g style="opacity:0.6;">
					<path style="fill:#FFFFFF;" d="M335.648,364.466v-0.453c0-2.001,1.622-3.623,3.623-3.623h20.899
						c2.001,0,3.623,1.622,3.623,3.623v0.453c0,2.001-1.622,3.623-3.623,3.623h-20.899
						C337.27,368.09,335.648,366.467,335.648,364.466z"/>
				</g>
			</g>
			<g>
				<path style="fill:#FFFFFF;" d="M327.062,364.466v-0.453c0-2.001,1.622-3.623,3.623-3.623h23.129
					c2.001,0,3.623,1.622,3.623,3.623v0.453c0,2.001-1.622,3.623-3.623,3.623h-23.129
					C328.684,368.09,327.062,366.467,327.062,364.466z"/>
				<path style="opacity:0.3;fill:#407BFF;" d="M327.062,364.466v-0.453c0-2.001,1.622-3.623,3.623-3.623h23.129
					c2.001,0,3.623,1.622,3.623,3.623v0.453c0,2.001-1.622,3.623-3.623,3.623h-23.129
					C328.684,368.09,327.062,366.467,327.062,364.466z"/>
			</g>
			<path style="opacity:0.9;fill:#FFFFFF;" d="M373.949,355.349h-59.219c-0.883,0-1.557-0.715-1.506-1.598l1.992-34.779
				c0.051-0.882,0.807-1.598,1.69-1.598h59.218c0.883,0,1.557,0.715,1.506,1.598l-1.992,34.779
				C375.588,354.634,374.832,355.349,373.949,355.349z"/>
			<g>
				<polygon style="opacity:0.1;fill:#407BFF;" points="331.798,355.349 320.021,355.349 330.794,317.374 342.571,317.374 				"/>
				<polygon style="opacity:0.1;fill:#407BFF;" points="341.441,355.349 333.214,355.349 343.987,317.374 352.215,317.374 				"/>
				<polygon style="opacity:0.1;fill:#407BFF;" points="359.379,355.349 351.152,355.349 361.925,317.374 370.152,317.374 				"/>
			</g>
		</g>
	</g>
</g>
<g id="Connection">
	<g>
		<g>
			<path style="fill:#407BFF;" d="M153.68,308.8c-0.07,0-0.13-0.02-0.19-0.04c-0.06-0.03-0.119-0.07-0.17-0.11
				c-0.04-0.05-0.08-0.1-0.1-0.16c-0.03-0.07-0.04-0.13-0.04-0.19c0-0.14,0.05-0.27,0.14-0.36c0.141-0.14,0.36-0.18,0.551-0.11
				c0.06,0.03,0.119,0.06,0.159,0.11c0.051,0.05,0.091,0.1,0.11,0.16c0.03,0.06,0.04,0.13,0.04,0.2c0,0.06-0.01,0.12-0.04,0.19
				c-0.02,0.06-0.06,0.11-0.11,0.16c-0.04,0.04-0.1,0.08-0.159,0.11C153.81,308.78,153.739,308.8,153.68,308.8z"/>
			<path style="fill:#407BFF;" d="M153.18,304.63c0-0.27,0.22-0.5,0.5-0.5l0,0c0.28,0,0.5,0.23,0.5,0.5l0,0c0,0.28-0.22,0.5-0.5,0.5
				l0,0C153.399,305.13,153.18,304.91,153.18,304.63z"/>
			<path style="fill:#407BFF;" d="M153.68,301.47c-0.13,0-0.26-0.05-0.36-0.15c-0.04-0.04-0.08-0.1-0.1-0.16
				c-0.03-0.06-0.04-0.12-0.04-0.19c0-0.13,0.05-0.26,0.14-0.35c0.141-0.14,0.36-0.19,0.551-0.11c0.06,0.03,0.119,0.06,0.159,0.11
				c0.051,0.04,0.091,0.1,0.11,0.16c0.03,0.06,0.04,0.13,0.04,0.19c0,0.07-0.01,0.13-0.04,0.19c-0.02,0.06-0.06,0.12-0.11,0.16
				c-0.04,0.05-0.1,0.09-0.159,0.11C153.81,301.46,153.739,301.47,153.68,301.47z"/>
			<path style="fill:#407BFF;" d="M245.489,300.97c0-0.27,0.221-0.5,0.49-0.5l0,0c0.28,0,0.5,0.23,0.5,0.5l0,0
				c0,0.28-0.22,0.5-0.5,0.5l0,0C245.71,301.47,245.489,301.25,245.489,300.97z M241.47,300.97c0-0.27,0.23-0.5,0.5-0.5l0,0
				c0.28,0,0.5,0.23,0.5,0.5l0,0c0,0.28-0.22,0.5-0.5,0.5l0,0C241.7,301.47,241.47,301.25,241.47,300.97z M237.46,300.97
				c0-0.27,0.22-0.5,0.5-0.5l0,0c0.27,0,0.5,0.23,0.5,0.5l0,0c0,0.28-0.23,0.5-0.5,0.5l0,0
				C237.68,301.47,237.46,301.25,237.46,300.97z M233.45,300.97c0-0.27,0.22-0.5,0.5-0.5l0,0c0.27,0,0.489,0.23,0.489,0.5l0,0
				c0,0.28-0.22,0.5-0.489,0.5l0,0C233.67,301.47,233.45,301.25,233.45,300.97z M229.43,300.97c0-0.27,0.23-0.5,0.5-0.5l0,0
				c0.28,0,0.5,0.23,0.5,0.5l0,0c0,0.28-0.22,0.5-0.5,0.5l0,0C229.66,301.47,229.43,301.25,229.43,300.97z M225.42,300.97
				c0-0.27,0.22-0.5,0.5-0.5l0,0c0.27,0,0.5,0.23,0.5,0.5l0,0c0,0.28-0.23,0.5-0.5,0.5l0,0
				C225.64,301.47,225.42,301.25,225.42,300.97z M221.41,300.97c0-0.27,0.22-0.5,0.5-0.5l0,0c0.27,0,0.5,0.23,0.5,0.5l0,0
				c0,0.28-0.23,0.5-0.5,0.5l0,0C221.63,301.47,221.41,301.25,221.41,300.97z M217.39,300.97c0-0.27,0.23-0.5,0.5-0.5l0,0
				c0.28,0,0.5,0.23,0.5,0.5l0,0c0,0.28-0.22,0.5-0.5,0.5l0,0C217.62,301.47,217.39,301.25,217.39,300.97z M213.38,300.97
				c0-0.27,0.22-0.5,0.5-0.5l0,0c0.27,0,0.5,0.23,0.5,0.5l0,0c0,0.28-0.23,0.5-0.5,0.5l0,0
				C213.6,301.47,213.38,301.25,213.38,300.97z M209.37,300.97c0-0.27,0.22-0.5,0.5-0.5l0,0c0.27,0,0.5,0.23,0.5,0.5l0,0
				c0,0.28-0.23,0.5-0.5,0.5l0,0C209.59,301.47,209.37,301.25,209.37,300.97z M205.35,300.97c0-0.27,0.23-0.5,0.5-0.5l0,0
				c0.28,0,0.5,0.23,0.5,0.5l0,0c0,0.28-0.22,0.5-0.5,0.5l0,0C205.58,301.47,205.35,301.25,205.35,300.97z M201.34,300.97
				c0-0.27,0.22-0.5,0.5-0.5l0,0c0.27,0,0.5,0.23,0.5,0.5l0,0c0,0.28-0.23,0.5-0.5,0.5l0,0
				C201.56,301.47,201.34,301.25,201.34,300.97z M197.319,300.97c0-0.27,0.23-0.5,0.511-0.5l0,0c0.27,0,0.5,0.23,0.5,0.5l0,0
				c0,0.28-0.23,0.5-0.5,0.5l0,0C197.55,301.47,197.319,301.25,197.319,300.97z M193.31,300.97c0-0.27,0.23-0.5,0.5-0.5l0,0
				c0.28,0,0.5,0.23,0.5,0.5l0,0c0,0.28-0.22,0.5-0.5,0.5l0,0C193.54,301.47,193.31,301.25,193.31,300.97z M189.3,300.97
				c0-0.27,0.22-0.5,0.5-0.5l0,0c0.28,0,0.5,0.23,0.5,0.5l0,0c0,0.28-0.22,0.5-0.5,0.5l0,0C189.52,301.47,189.3,301.25,189.3,300.97
				z M185.279,300.97c0-0.27,0.23-0.5,0.5-0.5l0,0c0.28,0,0.511,0.23,0.511,0.5l0,0c0,0.28-0.23,0.5-0.511,0.5l0,0
				C185.51,301.47,185.279,301.25,185.279,300.97z M181.27,300.97c0-0.27,0.22-0.5,0.5-0.5l0,0c0.28,0,0.5,0.23,0.5,0.5l0,0
				c0,0.28-0.22,0.5-0.5,0.5l0,0C181.489,301.47,181.27,301.25,181.27,300.97z M177.26,300.97c0-0.27,0.22-0.5,0.5-0.5l0,0
				c0.27,0,0.5,0.23,0.5,0.5l0,0c0,0.28-0.23,0.5-0.5,0.5l0,0C177.48,301.47,177.26,301.25,177.26,300.97z M173.239,300.97
				c0-0.27,0.23-0.5,0.5-0.5l0,0c0.28,0,0.5,0.23,0.5,0.5l0,0c0,0.28-0.22,0.5-0.5,0.5l0,0
				C173.47,301.47,173.239,301.25,173.239,300.97z M169.23,300.97c0-0.27,0.23-0.5,0.5-0.5l0,0c0.28,0,0.5,0.23,0.5,0.5l0,0
				c0,0.28-0.22,0.5-0.5,0.5l0,0C169.46,301.47,169.23,301.25,169.23,300.97z M165.22,300.97c0-0.27,0.22-0.5,0.5-0.5l0,0
				c0.27,0,0.5,0.23,0.5,0.5l0,0c0,0.28-0.23,0.5-0.5,0.5l0,0C165.439,301.47,165.22,301.25,165.22,300.97z M161.21,300.97
				c0-0.27,0.22-0.5,0.49-0.5l0,0c0.279,0,0.5,0.23,0.5,0.5l0,0c0,0.28-0.221,0.5-0.5,0.5l0,0
				C161.43,301.47,161.21,301.25,161.21,300.97z M157.189,300.97c0-0.27,0.23-0.5,0.5-0.5l0,0c0.28,0,0.5,0.23,0.5,0.5l0,0
				c0,0.28-0.22,0.5-0.5,0.5l0,0C157.42,301.47,157.189,301.25,157.189,300.97z"/>
			<path style="fill:#407BFF;" d="M250,301.47c-0.07,0-0.13-0.01-0.19-0.04c-0.06-0.02-0.12-0.06-0.16-0.1
				c-0.05-0.05-0.09-0.11-0.109-0.17c-0.03-0.06-0.04-0.12-0.04-0.19c0-0.06,0.01-0.13,0.04-0.19c0.02-0.06,0.06-0.11,0.109-0.16
				c0.04-0.05,0.101-0.08,0.16-0.11c0.12-0.05,0.26-0.05,0.38,0c0.061,0.03,0.12,0.06,0.16,0.11c0.101,0.09,0.15,0.22,0.15,0.35
				c0,0.07-0.011,0.13-0.04,0.19c-0.021,0.06-0.061,0.12-0.11,0.17c-0.04,0.04-0.1,0.08-0.16,0.1
				C250.13,301.46,250.069,301.47,250,301.47z"/>
		</g>
		<g>
			<path style="fill:#407BFF;" d="M250,301.47c-0.07,0-0.13-0.01-0.19-0.04c-0.06-0.02-0.12-0.06-0.16-0.1
				c-0.05-0.05-0.09-0.11-0.109-0.17c-0.03-0.06-0.04-0.12-0.04-0.19c0-0.06,0.01-0.13,0.04-0.19c0.02-0.06,0.06-0.11,0.109-0.16
				c0.04-0.05,0.101-0.08,0.16-0.11c0.12-0.05,0.26-0.05,0.38,0c0.061,0.03,0.12,0.06,0.16,0.11c0.101,0.09,0.15,0.22,0.15,0.35
				c0,0.07-0.011,0.13-0.04,0.19c-0.021,0.06-0.061,0.12-0.11,0.17c-0.04,0.04-0.1,0.08-0.16,0.1
				C250.13,301.46,250.069,301.47,250,301.47z"/>
			<path style="fill:#407BFF;" d="M249.5,297.5c0-0.28,0.23-0.5,0.5-0.5l0,0c0.279,0,0.5,0.22,0.5,0.5l0,0c0,0.28-0.221,0.5-0.5,0.5
				l0,0C249.73,298,249.5,297.78,249.5,297.5z M249.5,294.03c0-0.28,0.23-0.5,0.5-0.5l0,0c0.279,0,0.5,0.22,0.5,0.5l0,0
				c0,0.28-0.221,0.5-0.5,0.5l0,0C249.73,294.53,249.5,294.31,249.5,294.03z M249.5,290.56c0-0.28,0.23-0.5,0.5-0.5l0,0
				c0.279,0,0.5,0.22,0.5,0.5l0,0c0,0.28-0.221,0.5-0.5,0.5l0,0C249.73,291.06,249.5,290.84,249.5,290.56z"/>
			<path style="fill:#407BFF;" d="M250,287.59c-0.13,0-0.261-0.05-0.351-0.15c-0.05-0.04-0.09-0.1-0.109-0.16
				c-0.03-0.06-0.04-0.13-0.04-0.19c0-0.07,0.01-0.13,0.04-0.19c0.02-0.07,0.06-0.12,0.109-0.17c0.04-0.04,0.101-0.08,0.16-0.1
				c0.12-0.05,0.26-0.06,0.38,0c0.061,0.02,0.12,0.06,0.16,0.1c0.05,0.05,0.09,0.11,0.11,0.17c0.029,0.06,0.04,0.12,0.04,0.19
				c0,0.06-0.011,0.13-0.04,0.19c-0.021,0.06-0.061,0.12-0.11,0.16C250.26,287.54,250.13,287.59,250,287.59z"/>
		</g>
		<g>
			<path style="fill:#407BFF;" d="M250,301.47c-0.07,0-0.13-0.01-0.19-0.04c-0.06-0.02-0.12-0.06-0.16-0.1
				c-0.05-0.05-0.09-0.11-0.109-0.17c-0.03-0.06-0.04-0.12-0.04-0.19c0-0.06,0.01-0.13,0.04-0.19c0.02-0.06,0.06-0.11,0.109-0.16
				c0.04-0.05,0.101-0.08,0.16-0.11c0.12-0.05,0.26-0.05,0.38,0c0.061,0.03,0.12,0.06,0.16,0.11c0.101,0.09,0.15,0.22,0.15,0.35
				c0,0.07-0.011,0.13-0.04,0.19c-0.021,0.06-0.061,0.12-0.11,0.17c-0.04,0.04-0.1,0.08-0.16,0.1
				C250.13,301.46,250.069,301.47,250,301.47z"/>
			<path style="fill:#407BFF;" d="M249.5,304.63c0-0.27,0.23-0.5,0.5-0.5l0,0c0.279,0,0.5,0.23,0.5,0.5l0,0
				c0,0.28-0.221,0.5-0.5,0.5l0,0C249.73,305.13,249.5,304.91,249.5,304.63z"/>
			<path style="fill:#407BFF;" d="M250,308.8c-0.13,0-0.261-0.06-0.351-0.15c-0.05-0.05-0.09-0.1-0.109-0.16
				c-0.03-0.06-0.04-0.13-0.04-0.2c0-0.06,0.01-0.13,0.04-0.19c0.02-0.06,0.06-0.11,0.109-0.16c0.181-0.18,0.511-0.19,0.7,0
				c0.05,0.05,0.09,0.1,0.11,0.16c0.029,0.06,0.04,0.13,0.04,0.19c0,0.07-0.011,0.14-0.04,0.2c-0.021,0.06-0.061,0.11-0.11,0.16
				C250.26,308.74,250.13,308.8,250,308.8z"/>
		</g>
		<g>
			<path style="fill:#407BFF;" d="M346.319,308.8c-0.13,0-0.26-0.06-0.35-0.15c-0.09-0.1-0.15-0.23-0.15-0.36
				c0-0.13,0.061-0.26,0.15-0.35c0.18-0.18,0.52-0.19,0.7,0c0.05,0.05,0.09,0.1,0.109,0.16c0.03,0.06,0.04,0.13,0.04,0.19
				c0,0.13-0.05,0.26-0.149,0.36C346.58,308.74,346.45,308.8,346.319,308.8z"/>
			<path style="fill:#407BFF;" d="M345.819,304.63c0-0.27,0.23-0.5,0.5-0.5l0,0c0.28,0,0.5,0.23,0.5,0.5l0,0
				c0,0.28-0.22,0.5-0.5,0.5l0,0C346.05,305.13,345.819,304.91,345.819,304.63z"/>
			<path style="fill:#407BFF;" d="M346.319,301.47c-0.13,0-0.26-0.05-0.35-0.14c-0.09-0.1-0.15-0.23-0.15-0.36
				c0-0.13,0.061-0.26,0.15-0.35c0.18-0.19,0.51-0.19,0.7,0c0.1,0.09,0.149,0.22,0.149,0.35c0,0.13-0.05,0.26-0.149,0.36
				C346.58,301.42,346.45,301.47,346.319,301.47z"/>
			<path style="fill:#407BFF;" d="M341.81,300.97c0-0.28,0.22-0.5,0.5-0.5l0,0c0.271,0,0.5,0.22,0.5,0.5l0,0
				c0,0.28-0.229,0.5-0.5,0.5l0,0C342.029,301.47,341.81,301.25,341.81,300.97z M337.79,300.97c0-0.28,0.229-0.5,0.51-0.5l0,0
				c0.27,0,0.5,0.22,0.5,0.5l0,0c0,0.28-0.23,0.5-0.5,0.5l0,0C338.02,301.47,337.79,301.25,337.79,300.97z M333.779,300.97
				c0-0.28,0.23-0.5,0.5-0.5l0,0c0.28,0,0.5,0.22,0.5,0.5l0,0c0,0.28-0.22,0.5-0.5,0.5l0,0
				C334.01,301.47,333.779,301.25,333.779,300.97z M329.77,300.97c0-0.28,0.22-0.5,0.5-0.5l0,0c0.271,0,0.5,0.22,0.5,0.5l0,0
				c0,0.28-0.229,0.5-0.5,0.5l0,0C329.989,301.47,329.77,301.25,329.77,300.97z M325.75,300.97c0-0.28,0.229-0.5,0.5-0.5l0,0
				c0.279,0,0.51,0.22,0.51,0.5l0,0c0,0.28-0.23,0.5-0.51,0.5l0,0C325.979,301.47,325.75,301.25,325.75,300.97z M321.739,300.97
				c0-0.28,0.23-0.5,0.5-0.5l0,0c0.28,0,0.5,0.22,0.5,0.5l0,0c0,0.28-0.22,0.5-0.5,0.5l0,0
				C321.97,301.47,321.739,301.25,321.739,300.97z M317.729,300.97c0-0.28,0.221-0.5,0.5-0.5l0,0c0.271,0,0.5,0.22,0.5,0.5l0,0
				c0,0.28-0.229,0.5-0.5,0.5l0,0C317.95,301.47,317.729,301.25,317.729,300.97z M313.71,300.97c0-0.28,0.23-0.5,0.5-0.5l0,0
				c0.279,0,0.51,0.22,0.51,0.5l0,0c0,0.28-0.23,0.5-0.51,0.5l0,0C313.94,301.47,313.71,301.25,313.71,300.97z M309.7,300.97
				c0-0.28,0.229-0.5,0.5-0.5l0,0c0.279,0,0.5,0.22,0.5,0.5l0,0c0,0.28-0.221,0.5-0.5,0.5l0,0
				C309.93,301.47,309.7,301.25,309.7,300.97z M305.69,300.97c0-0.28,0.221-0.5,0.5-0.5l0,0c0.27,0,0.5,0.22,0.5,0.5l0,0
				c0,0.28-0.23,0.5-0.5,0.5l0,0C305.91,301.47,305.69,301.25,305.69,300.97z M301.67,300.97c0-0.28,0.23-0.5,0.5-0.5l0,0
				c0.28,0,0.5,0.22,0.5,0.5l0,0c0,0.28-0.22,0.5-0.5,0.5l0,0C301.899,301.47,301.67,301.25,301.67,300.97z M297.66,300.97
				c0-0.28,0.229-0.5,0.5-0.5l0,0c0.279,0,0.5,0.22,0.5,0.5l0,0c0,0.28-0.221,0.5-0.5,0.5l0,0
				C297.89,301.47,297.66,301.25,297.66,300.97z M293.649,300.97c0-0.28,0.221-0.5,0.5-0.5l0,0c0.27,0,0.5,0.22,0.5,0.5l0,0
				c0,0.28-0.23,0.5-0.5,0.5l0,0C293.87,301.47,293.649,301.25,293.649,300.97z M289.63,300.97c0-0.28,0.229-0.5,0.5-0.5l0,0
				c0.28,0,0.5,0.22,0.5,0.5l0,0c0,0.28-0.22,0.5-0.5,0.5l0,0C289.859,301.47,289.63,301.25,289.63,300.97z M285.62,300.97
				c0-0.28,0.23-0.5,0.5-0.5l0,0c0.279,0,0.5,0.22,0.5,0.5l0,0c0,0.28-0.221,0.5-0.5,0.5l0,0
				C285.85,301.47,285.62,301.25,285.62,300.97z M281.609,300.97c0-0.28,0.221-0.5,0.5-0.5l0,0c0.271,0,0.5,0.22,0.5,0.5l0,0
				c0,0.28-0.229,0.5-0.5,0.5l0,0C281.83,301.47,281.609,301.25,281.609,300.97z M277.59,300.97c0-0.28,0.229-0.5,0.5-0.5l0,0
				c0.28,0,0.51,0.22,0.51,0.5l0,0c0,0.28-0.23,0.5-0.51,0.5l0,0C277.819,301.47,277.59,301.25,277.59,300.97z M273.58,300.97
				c0-0.28,0.229-0.5,0.5-0.5l0,0c0.279,0,0.5,0.22,0.5,0.5l0,0c0,0.28-0.221,0.5-0.5,0.5l0,0
				C273.81,301.47,273.58,301.25,273.58,300.97z M269.569,300.97c0-0.28,0.221-0.5,0.5-0.5l0,0c0.271,0,0.5,0.22,0.5,0.5l0,0
				c0,0.28-0.229,0.5-0.5,0.5l0,0C269.79,301.47,269.569,301.25,269.569,300.97z M265.55,300.97c0-0.28,0.229-0.5,0.5-0.5l0,0
				c0.28,0,0.51,0.22,0.51,0.5l0,0c0,0.28-0.229,0.5-0.51,0.5l0,0C265.779,301.47,265.55,301.25,265.55,300.97z M261.54,300.97
				c0-0.28,0.22-0.5,0.5-0.5l0,0c0.279,0,0.5,0.22,0.5,0.5l0,0c0,0.28-0.221,0.5-0.5,0.5l0,0
				C261.76,301.47,261.54,301.25,261.54,300.97z M257.529,300.97c0-0.28,0.221-0.5,0.5-0.5l0,0c0.271,0,0.5,0.22,0.5,0.5l0,0
				c0,0.28-0.229,0.5-0.5,0.5l0,0C257.75,301.47,257.529,301.25,257.529,300.97z M253.51,300.97c0-0.28,0.23-0.5,0.5-0.5l0,0
				c0.28,0,0.51,0.22,0.51,0.5l0,0c0,0.28-0.23,0.5-0.51,0.5l0,0C253.739,301.47,253.51,301.25,253.51,300.97z"/>
			<path style="fill:#407BFF;" d="M250,301.47c-0.07,0-0.13-0.01-0.19-0.04c-0.06-0.02-0.12-0.06-0.16-0.1
				c-0.05-0.05-0.09-0.11-0.109-0.17c-0.03-0.06-0.04-0.12-0.04-0.19c0-0.06,0.01-0.13,0.04-0.19c0.02-0.06,0.06-0.11,0.109-0.16
				c0.04-0.05,0.101-0.08,0.16-0.11c0.12-0.05,0.26-0.05,0.38,0c0.061,0.03,0.12,0.06,0.16,0.11c0.101,0.09,0.15,0.22,0.15,0.35
				c0,0.07-0.011,0.13-0.04,0.19c-0.021,0.06-0.061,0.12-0.11,0.17c-0.04,0.04-0.1,0.08-0.16,0.1
				C250.13,301.46,250.069,301.47,250,301.47z"/>
		</g>
	</g>
</g>
<g id="Cloud">
	<g>
		<g>
			<g>
				<path style="fill:#407BFF;" d="M402.552,195.51c-0.276-32.859-26.988-59.414-59.912-59.414h-24.748
					c-12.507-21.695-35.928-36.302-62.768-36.302h-48.167v18.364c-11.124,9.928-19.169,23.236-22.511,38.316
					c-32.528,2.092-58.268,29.122-58.268,62.179c0,34.421,27.904,62.325,62.325,62.325H386.82c24.4,0,44.18-19.78,44.18-44.18
					C431,217.939,419.182,201.851,402.552,195.51z"/>
				<path style="opacity:0.7;fill:#FFFFFF;" d="M402.552,195.51c-0.276-32.859-26.988-59.414-59.912-59.414h-24.748
					c-12.507-21.695-35.928-36.302-62.768-36.302h-48.167v18.364c-11.124,9.928-19.169,23.236-22.511,38.316
					c-32.528,2.092-58.268,29.122-58.268,62.179c0,34.421,27.904,62.325,62.325,62.325H386.82c24.4,0,44.18-19.78,44.18-44.18
					C431,217.939,419.182,201.851,402.552,195.51z"/>
			</g>
			<path style="fill:#407BFF;" d="M354.384,195.51c-0.275-32.86-26.988-59.415-59.912-59.415c-7.933,0-15.5,1.556-22.43,4.356
				c-11.767-24.073-36.487-40.658-65.086-40.658c-34.587,0-63.492,24.255-70.678,56.679c-32.528,2.092-58.268,29.122-58.268,62.179
				c0,34.421,27.904,62.325,62.325,62.325h198.318c24.4,0,44.18-19.78,44.18-44.18C382.832,217.939,371.014,201.851,354.384,195.51z
				"/>
			<g>
				<defs>
					<path id="SVGID_1_" d="M354.384,195.51c-0.275-32.86-26.988-59.415-59.912-59.415c-7.933,0-15.5,1.556-22.43,4.356
						c-11.767-24.073-36.487-40.658-65.086-40.658c-34.587,0-63.492,24.255-70.678,56.679
						c-32.528,2.092-58.268,29.122-58.268,62.179c0,34.421,27.904,62.325,62.325,62.325h198.318c24.4,0,44.18-19.78,44.18-44.18
						C382.832,217.939,371.014,201.851,354.384,195.51z"/>
				</defs>
				<clipPath id="SVGID_00000098183623014736658250000010838605554442358438_">
					<use xlink:href="#SVGID_1_"  style="overflow:visible;"/>
				</clipPath>
				<path style="opacity:0.1;clip-path:url(#SVGID_00000098183623014736658250000010838605554442358438_);" d="M402.552,195.51
					c-0.276-32.86-26.988-59.415-59.912-59.415c-7.933,0-15.5,1.556-22.43,4.356c-11.767-24.073-36.487-40.658-65.087-40.658
					c-34.587,0-63.491,24.255-70.678,56.679c-32.528,2.092-58.268,29.122-58.268,62.179c0,34.421,27.904,62.325,62.325,62.325
					H386.82c24.4,0,44.18-19.78,44.18-44.18C431,217.939,419.182,201.851,402.552,195.51z"/>
			</g>
			<g>
				<path style="fill:#407BFF;" d="M338.652,281.947H140.334c-34.901,0-63.295-28.394-63.295-63.296
					c0-33.032,25.616-60.607,58.451-63.097c3.662-15.766,12.604-30.066,25.239-40.334c13.011-10.575,29.428-16.398,46.227-16.398
					c27.961,0,52.998,15.456,65.558,40.397c7.022-2.718,14.403-4.096,21.957-4.096c33.073,0,60.245,26.728,60.875,59.719
					c17.049,6.793,28.456,23.567,28.456,41.953C383.803,261.692,363.549,281.947,338.652,281.947z M206.956,100.764
					c-33.224,0-62.549,23.517-69.73,55.919c-0.094,0.422-0.455,0.731-0.886,0.759c-32.164,2.068-57.359,28.955-57.359,61.21
					c0,33.831,27.523,61.354,61.354,61.354h198.318c23.825,0,43.209-19.383,43.209-43.209c0-17.806-11.182-34.033-27.822-40.379
					c-0.374-0.142-0.622-0.499-0.625-0.899c-0.271-32.23-26.712-58.452-58.942-58.452c-7.605,0-15.028,1.442-22.066,4.285
					c-0.467,0.189-1.012-0.015-1.235-0.474C259.074,116.134,234.47,100.764,206.956,100.764z"/>
				<path style="opacity:0.7;fill:#FFFFFF;" d="M338.652,281.947H140.334c-34.901,0-63.295-28.394-63.295-63.296
					c0-33.032,25.616-60.607,58.451-63.097c3.662-15.766,12.604-30.066,25.239-40.334c13.011-10.575,29.428-16.398,46.227-16.398
					c27.961,0,52.998,15.456,65.558,40.397c7.022-2.718,14.403-4.096,21.957-4.096c33.073,0,60.245,26.728,60.875,59.719
					c17.049,6.793,28.456,23.567,28.456,41.953C383.803,261.692,363.549,281.947,338.652,281.947z M206.956,100.764
					c-33.224,0-62.549,23.517-69.73,55.919c-0.094,0.422-0.455,0.731-0.886,0.759c-32.164,2.068-57.359,28.955-57.359,61.21
					c0,33.831,27.523,61.354,61.354,61.354h198.318c23.825,0,43.209-19.383,43.209-43.209c0-17.806-11.182-34.033-27.822-40.379
					c-0.374-0.142-0.622-0.499-0.625-0.899c-0.271-32.23-26.712-58.452-58.942-58.452c-7.605,0-15.028,1.442-22.066,4.285
					c-0.467,0.189-1.012-0.015-1.235-0.474C259.074,116.134,234.47,100.764,206.956,100.764z"/>
			</g>
		</g>
		<g>
			<path style="fill:#E0E0E0;" d="M181.676,192.596h15.925c2.455,0,4.445,1.99,4.445,4.445v78.519c0,2.455-1.99,4.445-4.445,4.445
				h-15.925V192.596z"/>
			<path style="fill:#FFFFFF;" d="M183.261,192.596h-34.285c-2.455,0-4.445,1.99-4.445,4.445v78.519c0,2.455,1.99,4.445,4.445,4.445
				h34.285c2.455,0,4.445-1.99,4.445-4.445v-78.519C187.706,194.587,185.716,192.596,183.261,192.596z"/>
			<rect x="144.531" y="261.874" style="fill:#E0E0E0;" width="43.175" height="0.812"/>
			<rect x="144.531" y="244.555" style="fill:#E0E0E0;" width="43.175" height="0.812"/>
			<rect x="144.531" y="227.235" style="fill:#E0E0E0;" width="43.175" height="0.812"/>
			<rect x="144.531" y="209.916" style="fill:#E0E0E0;" width="43.175" height="0.812"/>
			<g>
				<path style="opacity:0.6;fill:#407BFF;" d="M166.059,204.298h-14.443c-0.911,0-1.65,0.739-1.65,1.65l0,0
					c0,0.911,0.738,1.65,1.65,1.65h14.443c0.911,0,1.65-0.739,1.65-1.65l0,0C167.708,205.036,166.97,204.298,166.059,204.298z"/>
				<path style="opacity:0.6;fill:#407BFF;" d="M166.059,200.012h-14.443c-0.911,0-1.65,0.739-1.65,1.65l0,0
					c0,0.911,0.738,1.65,1.65,1.65h14.443c0.911,0,1.65-0.739,1.65-1.65l0,0C167.708,200.751,166.97,200.012,166.059,200.012z"/>
				<path style="opacity:0.6;fill:#407BFF;" d="M166.059,195.727h-14.443c-0.911,0-1.65,0.739-1.65,1.65l0,0
					c0,0.911,0.738,1.65,1.65,1.65h14.443c0.911,0,1.65-0.739,1.65-1.65l0,0C167.708,196.465,166.97,195.727,166.059,195.727z"/>
				
					<rect x="169.224" y="204.298" transform="matrix(-1 -1.224647e-16 1.224647e-16 -1 344.4783 411.8949)" style="fill:#EBEBEB;" width="6.03" height="3.299"/>
				
					<rect x="169.224" y="200.012" transform="matrix(-1 -1.224647e-16 1.224647e-16 -1 344.4783 403.324)" style="fill:#407BFF;" width="6.03" height="3.299"/>
				
					<rect x="169.224" y="195.727" transform="matrix(-1 -1.224647e-16 1.224647e-16 -1 344.4783 394.7531)" style="fill:#EBEBEB;" width="6.03" height="3.299"/>
				
					<rect x="176.24" y="204.298" transform="matrix(-1 -1.224647e-16 1.224647e-16 -1 358.5103 411.8949)" style="fill:#EBEBEB;" width="6.03" height="3.299"/>
				
					<rect x="176.24" y="200.012" transform="matrix(-1 -1.224647e-16 1.224647e-16 -1 358.5103 403.324)" style="fill:#EBEBEB;" width="6.03" height="3.299"/>
				
					<rect x="176.24" y="195.727" transform="matrix(-1 -1.224647e-16 1.224647e-16 -1 358.5103 394.7531)" style="fill:#407BFF;" width="6.03" height="3.299"/>
			</g>
			<g>
				<path style="fill:#EBEBEB;" d="M166.059,221.617h-14.443c-0.911,0-1.65,0.739-1.65,1.65l0,0c0,0.911,0.738,1.65,1.65,1.65
					h14.443c0.911,0,1.65-0.739,1.65-1.65l0,0C167.708,222.356,166.97,221.617,166.059,221.617z"/>
				<path style="opacity:0.6;fill:#407BFF;" d="M166.059,217.332h-14.443c-0.911,0-1.65,0.739-1.65,1.65l0,0
					c0,0.911,0.738,1.65,1.65,1.65h14.443c0.911,0,1.65-0.739,1.65-1.65l0,0C167.708,218.07,166.97,217.332,166.059,217.332z"/>
				<path style="opacity:0.6;fill:#407BFF;" d="M166.059,213.046h-14.443c-0.911,0-1.65,0.739-1.65,1.65l0,0
					c0,0.911,0.738,1.65,1.65,1.65h14.443c0.911,0,1.65-0.739,1.65-1.65l0,0C167.708,213.785,166.97,213.046,166.059,213.046z"/>
				
					<rect x="169.224" y="221.617" transform="matrix(-1 -1.224647e-16 1.224647e-16 -1 344.4783 446.5338)" style="fill:#EBEBEB;" width="6.03" height="3.299"/>
				
					<rect x="169.224" y="217.332" transform="matrix(-1 -1.224647e-16 1.224647e-16 -1 344.4783 437.9629)" style="fill:#EBEBEB;" width="6.03" height="3.299"/>
				
					<rect x="169.224" y="213.046" transform="matrix(-1 -1.224647e-16 1.224647e-16 -1 344.4783 429.392)" style="fill:#407BFF;" width="6.03" height="3.299"/>
				
					<rect x="176.24" y="221.617" transform="matrix(-1 -1.224647e-16 1.224647e-16 -1 358.5103 446.5338)" style="fill:#EBEBEB;" width="6.03" height="3.299"/>
				
					<rect x="176.24" y="217.332" transform="matrix(-1 -1.224647e-16 1.224647e-16 -1 358.5103 437.9629)" style="fill:#EBEBEB;" width="6.03" height="3.299"/>
				
					<rect x="176.24" y="213.046" transform="matrix(-1 -1.224647e-16 1.224647e-16 -1 358.5103 429.392)" style="fill:#EBEBEB;" width="6.03" height="3.299"/>
			</g>
			<g>
				<path style="opacity:0.6;fill:#407BFF;" d="M166.059,238.937h-14.443c-0.911,0-1.65,0.739-1.65,1.65l0,0
					c0,0.911,0.738,1.65,1.65,1.65h14.443c0.911,0,1.65-0.739,1.65-1.65l0,0C167.708,239.675,166.97,238.937,166.059,238.937z"/>
				<path style="opacity:0.6;fill:#407BFF;" d="M166.059,234.651h-14.443c-0.911,0-1.65,0.739-1.65,1.65l0,0
					c0,0.911,0.738,1.65,1.65,1.65h14.443c0.911,0,1.65-0.739,1.65-1.65l0,0C167.708,235.39,166.97,234.651,166.059,234.651z"/>
				<path style="opacity:0.6;fill:#407BFF;" d="M166.059,230.366h-14.443c-0.911,0-1.65,0.739-1.65,1.65l0,0
					c0,0.911,0.738,1.65,1.65,1.65h14.443c0.911,0,1.65-0.739,1.65-1.65l0,0C167.708,231.104,166.97,230.366,166.059,230.366z"/>
				
					<rect x="169.224" y="238.937" transform="matrix(-1 -1.224647e-16 1.224647e-16 -1 344.4783 481.1727)" style="fill:#EBEBEB;" width="6.03" height="3.299"/>
				
					<rect x="169.224" y="234.651" transform="matrix(-1 -1.224647e-16 1.224647e-16 -1 344.4783 472.6018)" style="fill:#407BFF;" width="6.03" height="3.299"/>
				
					<rect x="169.224" y="230.366" transform="matrix(-1 -1.224647e-16 1.224647e-16 -1 344.4783 464.0309)" style="fill:#EBEBEB;" width="6.03" height="3.299"/>
				
					<rect x="176.24" y="238.937" transform="matrix(-1 -1.224647e-16 1.224647e-16 -1 358.5103 481.1727)" style="fill:#EBEBEB;" width="6.03" height="3.299"/>
				
					<rect x="176.24" y="234.651" transform="matrix(-1 -1.224647e-16 1.224647e-16 -1 358.5103 472.6018)" style="fill:#EBEBEB;" width="6.03" height="3.299"/>
				
					<rect x="176.24" y="230.366" transform="matrix(-1 -1.224647e-16 1.224647e-16 -1 358.5103 464.0309)" style="fill:#407BFF;" width="6.03" height="3.299"/>
			</g>
			<g>
				<path style="opacity:0.6;fill:#407BFF;" d="M166.059,256.256h-14.443c-0.911,0-1.65,0.739-1.65,1.65l0,0
					c0,0.911,0.738,1.65,1.65,1.65h14.443c0.911,0,1.65-0.739,1.65-1.65l0,0C167.708,256.995,166.97,256.256,166.059,256.256z"/>
				<path style="opacity:0.6;fill:#407BFF;" d="M166.059,251.971h-14.443c-0.911,0-1.65,0.739-1.65,1.65v0
					c0,0.911,0.738,1.65,1.65,1.65h14.443c0.911,0,1.65-0.739,1.65-1.65v0C167.708,252.709,166.97,251.971,166.059,251.971z"/>
				<path style="opacity:0.6;fill:#407BFF;" d="M166.059,247.685h-14.443c-0.911,0-1.65,0.739-1.65,1.65l0,0
					c0,0.911,0.738,1.65,1.65,1.65h14.443c0.911,0,1.65-0.739,1.65-1.65l0,0C167.708,248.424,166.97,247.685,166.059,247.685z"/>
				
					<rect x="169.224" y="256.256" transform="matrix(-1 -1.224647e-16 1.224647e-16 -1 344.4783 515.8116)" style="fill:#EBEBEB;" width="6.03" height="3.299"/>
				
					<rect x="169.224" y="251.971" transform="matrix(-1 -1.224647e-16 1.224647e-16 -1 344.4783 507.2407)" style="fill:#407BFF;" width="6.03" height="3.299"/>
				
					<rect x="169.224" y="247.685" transform="matrix(-1 -1.224647e-16 1.224647e-16 -1 344.4783 498.6698)" style="fill:#EBEBEB;" width="6.03" height="3.299"/>
				
					<rect x="176.24" y="256.256" transform="matrix(-1 -1.224647e-16 1.224647e-16 -1 358.5103 515.8116)" style="fill:#407BFF;" width="6.03" height="3.299"/>
				
					<rect x="176.24" y="251.971" transform="matrix(-1 -1.224647e-16 1.224647e-16 -1 358.5103 507.2407)" style="fill:#EBEBEB;" width="6.03" height="3.299"/>
				
					<rect x="176.24" y="247.685" transform="matrix(-1 -1.224647e-16 1.224647e-16 -1 358.5103 498.6698)" style="fill:#407BFF;" width="6.03" height="3.299"/>
			</g>
			<g>
				<path style="opacity:0.6;fill:#407BFF;" d="M166.059,273.576h-14.443c-0.911,0-1.65,0.739-1.65,1.65l0,0
					c0,0.911,0.738,1.65,1.65,1.65h14.443c0.911,0,1.65-0.739,1.65-1.65l0,0C167.708,274.314,166.97,273.576,166.059,273.576z"/>
				<path style="opacity:0.6;fill:#407BFF;" d="M166.059,269.29h-14.443c-0.911,0-1.65,0.739-1.65,1.65l0,0
					c0,0.911,0.738,1.65,1.65,1.65h14.443c0.911,0,1.65-0.739,1.65-1.65l0,0C167.708,270.029,166.97,269.29,166.059,269.29z"/>
				<path style="opacity:0.6;fill:#407BFF;" d="M166.059,265.005h-14.443c-0.911,0-1.65,0.739-1.65,1.65l0,0
					c0,0.911,0.738,1.65,1.65,1.65h14.443c0.911,0,1.65-0.739,1.65-1.65l0,0C167.708,265.743,166.97,265.005,166.059,265.005z"/>
				
					<rect x="169.224" y="273.576" transform="matrix(-1 -1.224647e-16 1.224647e-16 -1 344.4783 550.4505)" style="fill:#407BFF;" width="6.03" height="3.299"/>
				
					<rect x="169.224" y="269.29" transform="matrix(-1 -1.224647e-16 1.224647e-16 -1 344.4783 541.8796)" style="fill:#EBEBEB;" width="6.03" height="3.299"/>
				
					<rect x="169.224" y="265.005" transform="matrix(-1 -1.224647e-16 1.224647e-16 -1 344.4783 533.3087)" style="fill:#EBEBEB;" width="6.03" height="3.299"/>
				
					<rect x="176.24" y="273.576" transform="matrix(-1 -1.224647e-16 1.224647e-16 -1 358.5103 550.4505)" style="fill:#EBEBEB;" width="6.03" height="3.299"/>
				
					<rect x="176.24" y="269.29" transform="matrix(-1 -1.224647e-16 1.224647e-16 -1 358.5103 541.8796)" style="fill:#EBEBEB;" width="6.03" height="3.299"/>
				
					<rect x="176.24" y="265.005" transform="matrix(-1 -1.224647e-16 1.224647e-16 -1 358.5103 533.3087)" style="fill:#407BFF;" width="6.03" height="3.299"/>
			</g>
		</g>
		<g>
			<path style="fill:#E0E0E0;" d="M243.888,151.325h23.445c3.614,0,6.544,2.93,6.544,6.544v115.593c0,3.614-2.93,6.544-6.544,6.544
				h-23.445V151.325z"/>
			<path style="fill:#FFFFFF;" d="M246.221,151.325h-50.474c-3.614,0-6.544,2.93-6.544,6.544v115.593
				c0,3.614,2.93,6.544,6.544,6.544h50.474c3.614,0,6.544-2.93,6.544-6.544V157.869
				C252.765,154.254,249.835,151.325,246.221,151.325z"/>
			<rect x="189.204" y="253.313" style="fill:#E0E0E0;" width="63.562" height="1.195"/>
			<rect x="189.204" y="227.816" style="fill:#E0E0E0;" width="63.562" height="1.195"/>
			<rect x="189.204" y="202.319" style="fill:#E0E0E0;" width="63.562" height="1.195"/>
			<rect x="189.204" y="176.822" style="fill:#E0E0E0;" width="63.562" height="1.195"/>
			<g>
				<path style="opacity:0.6;fill:#407BFF;" d="M220.897,168.551h-21.262c-1.341,0-2.429,1.087-2.429,2.429l0,0
					c0,1.341,1.087,2.429,2.429,2.429h21.262c1.341,0,2.429-1.087,2.429-2.429l0,0C223.325,169.638,222.238,168.551,220.897,168.551
					z"/>
				<path style="opacity:0.6;fill:#407BFF;" d="M220.897,162.242h-21.262c-1.341,0-2.429,1.087-2.429,2.429l0,0
					c0,1.341,1.087,2.429,2.429,2.429h21.262c1.341,0,2.429-1.087,2.429-2.429l0,0C223.325,163.329,222.238,162.242,220.897,162.242
					z"/>
				<path style="opacity:0.6;fill:#407BFF;" d="M220.897,155.933h-21.262c-1.341,0-2.429,1.087-2.429,2.429l0,0
					c0,1.341,1.087,2.429,2.429,2.429h21.262c1.341,0,2.429-1.087,2.429-2.429l0,0C223.325,157.02,222.238,155.933,220.897,155.933z
					"/>
				
					<rect x="225.557" y="168.551" transform="matrix(-1 -1.224647e-16 1.224647e-16 -1 459.991 341.9592)" style="fill:#EBEBEB;" width="8.877" height="4.857"/>
				
					<rect x="225.557" y="162.242" transform="matrix(-1 -1.224647e-16 1.224647e-16 -1 459.991 329.3414)" style="fill:#407BFF;" width="8.877" height="4.857"/>
				
					<rect x="225.557" y="155.933" transform="matrix(-1 -1.224647e-16 1.224647e-16 -1 459.991 316.7234)" style="fill:#EBEBEB;" width="8.877" height="4.857"/>
				
					<rect x="235.886" y="168.551" transform="matrix(-1 -1.224647e-16 1.224647e-16 -1 480.6485 341.9592)" style="fill:#EBEBEB;" width="8.877" height="4.857"/>
				
					<rect x="235.886" y="162.242" transform="matrix(-1 -1.224647e-16 1.224647e-16 -1 480.6485 329.3414)" style="fill:#EBEBEB;" width="8.877" height="4.857"/>
				
					<rect x="235.886" y="155.933" transform="matrix(-1 -1.224647e-16 1.224647e-16 -1 480.6485 316.7234)" style="fill:#407BFF;" width="8.877" height="4.857"/>
			</g>
			<g>
				<path style="opacity:0.6;fill:#407BFF;" d="M220.897,194.048h-21.262c-1.341,0-2.429,1.087-2.429,2.429l0,0
					c0,1.341,1.087,2.429,2.429,2.429h21.262c1.341,0,2.429-1.087,2.429-2.429l0,0C223.325,195.135,222.238,194.048,220.897,194.048
					z"/>
				<path style="opacity:0.6;fill:#407BFF;" d="M220.897,187.739h-21.262c-1.341,0-2.429,1.087-2.429,2.429l0,0
					c0,1.341,1.087,2.429,2.429,2.429h21.262c1.341,0,2.429-1.087,2.429-2.429l0,0C223.325,188.827,222.238,187.739,220.897,187.739
					z"/>
				<path style="opacity:0.6;fill:#407BFF;" d="M220.897,181.43h-21.262c-1.341,0-2.429,1.087-2.429,2.429l0,0
					c0,1.341,1.087,2.429,2.429,2.429h21.262c1.341,0,2.429-1.087,2.429-2.429l0,0C223.325,182.518,222.238,181.43,220.897,181.43z"
					/>
				
					<rect x="225.557" y="194.048" transform="matrix(-1 -1.224647e-16 1.224647e-16 -1 459.991 392.9534)" style="fill:#EBEBEB;" width="8.877" height="4.857"/>
				
					<rect x="225.557" y="187.739" transform="matrix(-1 -1.224647e-16 1.224647e-16 -1 459.991 380.3356)" style="fill:#EBEBEB;" width="8.877" height="4.857"/>
				
					<rect x="225.557" y="181.43" transform="matrix(-1 -1.224647e-16 1.224647e-16 -1 459.991 367.7178)" style="fill:#407BFF;" width="8.877" height="4.857"/>
				
					<rect x="235.886" y="194.048" transform="matrix(-1 -1.224647e-16 1.224647e-16 -1 480.6485 392.9534)" style="fill:#407BFF;" width="8.877" height="4.857"/>
				
					<rect x="235.886" y="187.739" transform="matrix(-1 -1.224647e-16 1.224647e-16 -1 480.6485 380.3356)" style="fill:#EBEBEB;" width="8.877" height="4.857"/>
				
					<rect x="235.886" y="181.43" transform="matrix(-1 -1.224647e-16 1.224647e-16 -1 480.6485 367.7178)" style="fill:#407BFF;" width="8.877" height="4.857"/>
			</g>
			<g>
				<path style="opacity:0.6;fill:#407BFF;" d="M220.897,219.545h-21.262c-1.341,0-2.429,1.087-2.429,2.429l0,0
					c0,1.341,1.087,2.429,2.429,2.429h21.262c1.341,0,2.429-1.087,2.429-2.429l0,0C223.325,220.633,222.238,219.545,220.897,219.545
					z"/>
				<path style="opacity:0.6;fill:#407BFF;" d="M220.897,213.236h-21.262c-1.341,0-2.429,1.087-2.429,2.429l0,0
					c0,1.341,1.087,2.429,2.429,2.429h21.262c1.341,0,2.429-1.087,2.429-2.429l0,0C223.325,214.324,222.238,213.236,220.897,213.236
					z"/>
				<path style="opacity:0.6;fill:#407BFF;" d="M220.897,206.928h-21.262c-1.341,0-2.429,1.087-2.429,2.429l0,0
					c0,1.341,1.087,2.429,2.429,2.429h21.262c1.341,0,2.429-1.087,2.429-2.429l0,0C223.325,208.015,222.238,206.928,220.897,206.928
					z"/>
				
					<rect x="225.557" y="219.545" transform="matrix(-1 -1.224647e-16 1.224647e-16 -1 459.991 443.9478)" style="fill:#407BFF;" width="8.877" height="4.857"/>
				
					<rect x="225.557" y="213.236" transform="matrix(-1 -1.224647e-16 1.224647e-16 -1 459.991 431.33)" style="fill:#EBEBEB;" width="8.877" height="4.857"/>
				
					<rect x="225.557" y="206.928" transform="matrix(-1 -1.224647e-16 1.224647e-16 -1 459.991 418.7122)" style="fill:#EBEBEB;" width="8.877" height="4.857"/>
				
					<rect x="235.886" y="219.545" transform="matrix(-1 -1.224647e-16 1.224647e-16 -1 480.6485 443.9478)" style="fill:#EBEBEB;" width="8.877" height="4.857"/>
				
					<rect x="235.886" y="213.236" transform="matrix(-1 -1.224647e-16 1.224647e-16 -1 480.6485 431.33)" style="fill:#EBEBEB;" width="8.877" height="4.857"/>
				
					<rect x="235.886" y="206.928" transform="matrix(-1 -1.224647e-16 1.224647e-16 -1 480.6485 418.7122)" style="fill:#407BFF;" width="8.877" height="4.857"/>
			</g>
			<g>
				<path style="opacity:0.6;fill:#407BFF;" d="M220.897,245.042h-21.262c-1.341,0-2.429,1.087-2.429,2.429l0,0
					c0,1.341,1.087,2.429,2.429,2.429h21.262c1.341,0,2.429-1.087,2.429-2.429l0,0C223.325,246.13,222.238,245.042,220.897,245.042z
					"/>
				<path style="fill:#EBEBEB;" d="M220.897,238.734h-21.262c-1.341,0-2.429,1.087-2.429,2.428l0,0c0,1.341,1.087,2.429,2.429,2.429
					h21.262c1.341,0,2.429-1.087,2.429-2.429l0,0C223.325,239.821,222.238,238.734,220.897,238.734z"/>
				<path style="opacity:0.6;fill:#407BFF;" d="M220.897,232.425h-21.262c-1.341,0-2.429,1.087-2.429,2.429l0,0
					c0,1.341,1.087,2.429,2.429,2.429h21.262c1.341,0,2.429-1.087,2.429-2.429l0,0C223.325,233.512,222.238,232.425,220.897,232.425
					z"/>
				
					<rect x="225.557" y="245.042" transform="matrix(-1 -1.224647e-16 1.224647e-16 -1 459.991 494.9422)" style="fill:#EBEBEB;" width="8.877" height="4.857"/>
				
					<rect x="225.557" y="238.734" transform="matrix(-1 -1.224647e-16 1.224647e-16 -1 459.991 482.3243)" style="fill:#407BFF;" width="8.877" height="4.857"/>
				
					<rect x="225.557" y="232.425" transform="matrix(-1 -1.224647e-16 1.224647e-16 -1 459.991 469.7064)" style="fill:#EBEBEB;" width="8.877" height="4.857"/>
				
					<rect x="235.886" y="245.042" transform="matrix(-1 -1.224647e-16 1.224647e-16 -1 480.6485 494.9422)" style="fill:#407BFF;" width="8.877" height="4.857"/>
				
					<rect x="235.886" y="238.734" transform="matrix(-1 -1.224647e-16 1.224647e-16 -1 480.6485 482.3243)" style="fill:#407BFF;" width="8.877" height="4.857"/>
				
					<rect x="235.886" y="232.425" transform="matrix(-1 -1.224647e-16 1.224647e-16 -1 480.6485 469.7064)" style="fill:#EBEBEB;" width="8.877" height="4.857"/>
			</g>
			<g>
				<path style="opacity:0.6;fill:#407BFF;" d="M220.897,270.54h-21.262c-1.341,0-2.429,1.087-2.429,2.429l0,0
					c0,1.341,1.087,2.429,2.429,2.429h21.262c1.341,0,2.429-1.087,2.429-2.429l0,0C223.325,271.627,222.238,270.54,220.897,270.54z"
					/>
				<path style="opacity:0.6;fill:#407BFF;" d="M220.897,264.231h-21.262c-1.341,0-2.429,1.087-2.429,2.429l0,0
					c0,1.341,1.087,2.429,2.429,2.429h21.262c1.341,0,2.429-1.087,2.429-2.429l0,0C223.325,265.318,222.238,264.231,220.897,264.231
					z"/>
				<path style="opacity:0.6;fill:#407BFF;" d="M220.897,257.922h-21.262c-1.341,0-2.429,1.087-2.429,2.429l0,0
					c0,1.341,1.087,2.429,2.429,2.429h21.262c1.341,0,2.429-1.087,2.429-2.429l0,0C223.325,259.009,222.238,257.922,220.897,257.922
					z"/>
				
					<rect x="225.557" y="270.54" transform="matrix(-1 -1.224647e-16 1.224647e-16 -1 459.991 545.9364)" style="fill:#EBEBEB;" width="8.877" height="4.857"/>
				
					<rect x="225.557" y="264.231" transform="matrix(-1 -1.224647e-16 1.224647e-16 -1 459.991 533.3186)" style="fill:#EBEBEB;" width="8.877" height="4.857"/>
				
					<rect x="225.557" y="257.922" transform="matrix(-1 -1.224647e-16 1.224647e-16 -1 459.991 520.7008)" style="fill:#EBEBEB;" width="8.877" height="4.857"/>
				
					<rect x="235.886" y="270.54" transform="matrix(-1 -1.224647e-16 1.224647e-16 -1 480.6485 545.9364)" style="fill:#EBEBEB;" width="8.877" height="4.857"/>
				
					<rect x="235.886" y="264.231" transform="matrix(-1 -1.224647e-16 1.224647e-16 -1 480.6485 533.3186)" style="fill:#EBEBEB;" width="8.877" height="4.857"/>
				
					<rect x="235.886" y="257.922" transform="matrix(-1 -1.224647e-16 1.224647e-16 -1 480.6485 520.7008)" style="fill:#407BFF;" width="8.877" height="4.857"/>
			</g>
		</g>
		<g>
			<path style="fill:#E0E0E0;" d="M302.213,168.084h20.391c3.143,0,5.692,2.548,5.692,5.692v100.538
				c0,3.143-2.548,5.692-5.692,5.692h-20.391V168.084z"/>
			<path style="fill:#FFFFFF;" d="M304.242,168.084h-43.9c-3.143,0-5.692,2.548-5.692,5.692v100.538
				c0,3.143,2.548,5.692,5.692,5.692h43.9c3.144,0,5.692-2.548,5.692-5.692V173.776
				C309.934,170.632,307.385,168.084,304.242,168.084z"/>
			<rect x="254.65" y="256.79" style="fill:#E0E0E0;" width="55.283" height="1.039"/>
			<rect x="254.65" y="234.613" style="fill:#E0E0E0;" width="55.283" height="1.039"/>
			<rect x="254.65" y="212.437" style="fill:#E0E0E0;" width="55.283" height="1.039"/>
			<rect x="254.65" y="190.26" style="fill:#E0E0E0;" width="55.283" height="1.039"/>
			<g>
				<path style="opacity:0.6;fill:#407BFF;" d="M282.216,183.067h-18.493c-1.167,0-2.112,0.946-2.112,2.112l0,0
					c0,1.167,0.946,2.112,2.112,2.112h18.493c1.167,0,2.112-0.946,2.112-2.112l0,0C284.328,184.012,283.382,183.067,282.216,183.067
					z"/>
				<path style="opacity:0.6;fill:#407BFF;" d="M282.216,177.579h-18.493c-1.167,0-2.112,0.946-2.112,2.112l0,0
					c0,1.167,0.946,2.112,2.112,2.112h18.493c1.167,0,2.112-0.946,2.112-2.112l0,0C284.328,178.525,283.382,177.579,282.216,177.579
					z"/>
				<path style="opacity:0.6;fill:#407BFF;" d="M282.216,172.092h-18.493c-1.167,0-2.112,0.946-2.112,2.112l0,0
					c0,1.167,0.946,2.112,2.112,2.112h18.493c1.167,0,2.112-0.946,2.112-2.112l0,0C284.328,173.038,283.382,172.092,282.216,172.092
					z"/>
				
					<rect x="286.269" y="260.798" transform="matrix(-1 -1.224647e-16 1.224647e-16 -1 580.2583 525.8205)" style="fill:#EBEBEB;" width="7.721" height="4.225"/>
				
					<rect x="286.269" y="266.285" transform="matrix(-1 -1.224647e-16 1.224647e-16 -1 580.2583 536.795)" style="fill:#407BFF;" width="7.721" height="4.225"/>
				
					<rect x="286.269" y="271.772" transform="matrix(-1 -1.224647e-16 1.224647e-16 -1 580.2583 547.7694)" style="fill:#EBEBEB;" width="7.721" height="4.225"/>
				
					<rect x="295.252" y="260.798" transform="matrix(-1 -1.224647e-16 1.224647e-16 -1 598.2255 525.8205)" style="fill:#EBEBEB;" width="7.721" height="4.225"/>
				
					<rect x="295.252" y="266.285" transform="matrix(-1 -1.224647e-16 1.224647e-16 -1 598.2255 536.795)" style="fill:#EBEBEB;" width="7.721" height="4.225"/>
				
					<rect x="295.252" y="271.772" transform="matrix(-1 -1.224647e-16 1.224647e-16 -1 598.2255 547.7694)" style="fill:#407BFF;" width="7.721" height="4.225"/>
			</g>
			<g>
				<path style="fill:#EBEBEB;" d="M282.216,205.243h-18.493c-1.167,0-2.112,0.946-2.112,2.112l0,0c0,1.167,0.946,2.112,2.112,2.112
					h18.493c1.167,0,2.112-0.946,2.112-2.112l0,0C284.328,206.189,283.382,205.243,282.216,205.243z"/>
				<path style="opacity:0.6;fill:#407BFF;" d="M282.216,199.756h-18.493c-1.167,0-2.112,0.946-2.112,2.112l0,0
					c0,1.167,0.946,2.112,2.112,2.112h18.493c1.167,0,2.112-0.946,2.112-2.112l0,0C284.328,200.702,283.382,199.756,282.216,199.756
					z"/>
				<path style="opacity:0.6;fill:#407BFF;" d="M282.216,194.269h-18.493c-1.167,0-2.112,0.946-2.112,2.112l0,0
					c0,1.167,0.946,2.112,2.112,2.112h18.493c1.167,0,2.112-0.946,2.112-2.112l0,0C284.328,195.214,283.382,194.269,282.216,194.269
					z"/>
				
					<rect x="286.269" y="238.622" transform="matrix(-1 -1.224647e-16 1.224647e-16 -1 580.2583 481.4676)" style="fill:#EBEBEB;" width="7.721" height="4.225"/>
				
					<rect x="286.269" y="244.109" transform="matrix(-1 -1.224647e-16 1.224647e-16 -1 580.2583 492.4422)" style="fill:#EBEBEB;" width="7.721" height="4.225"/>
				
					<rect x="286.269" y="249.596" transform="matrix(-1 -1.224647e-16 1.224647e-16 -1 580.2583 503.4166)" style="fill:#407BFF;" width="7.721" height="4.225"/>
				
					<rect x="295.252" y="238.622" transform="matrix(-1 -1.224647e-16 1.224647e-16 -1 598.2255 481.4676)" style="fill:#407BFF;" width="7.721" height="4.225"/>
				
					<rect x="295.252" y="244.109" transform="matrix(-1 -1.224647e-16 1.224647e-16 -1 598.2255 492.4422)" style="fill:#EBEBEB;" width="7.721" height="4.225"/>
				
					<rect x="295.252" y="249.596" transform="matrix(-1 -1.224647e-16 1.224647e-16 -1 598.2255 503.4166)" style="fill:#407BFF;" width="7.721" height="4.225"/>
			</g>
			<g>
				<path style="opacity:0.6;fill:#407BFF;" d="M282.216,227.42h-18.493c-1.167,0-2.112,0.946-2.112,2.112l0,0
					c0,1.167,0.946,2.112,2.112,2.112h18.493c1.167,0,2.112-0.946,2.112-2.112l0,0C284.328,228.365,283.382,227.42,282.216,227.42z"
					/>
				<path style="opacity:0.6;fill:#407BFF;" d="M282.216,221.932h-18.493c-1.167,0-2.112,0.946-2.112,2.112l0,0
					c0,1.167,0.946,2.112,2.112,2.112h18.493c1.167,0,2.112-0.946,2.112-2.112l0,0C284.328,222.878,283.382,221.932,282.216,221.932
					z"/>
				<path style="opacity:0.6;fill:#407BFF;" d="M282.216,216.445h-18.493c-1.167,0-2.112,0.946-2.112,2.112l0,0
					c0,1.167,0.946,2.112,2.112,2.112h18.493c1.167,0,2.112-0.946,2.112-2.112l0,0C284.328,217.391,283.382,216.445,282.216,216.445
					z"/>
				
					<rect x="286.269" y="216.445" transform="matrix(-1 -1.224647e-16 1.224647e-16 -1 580.2583 437.1148)" style="fill:#407BFF;" width="7.721" height="4.225"/>
				
					<rect x="286.269" y="221.932" transform="matrix(-1 -1.224647e-16 1.224647e-16 -1 580.2583 448.0894)" style="fill:#EBEBEB;" width="7.721" height="4.225"/>
				
					<rect x="286.269" y="227.42" transform="matrix(-1 -1.224647e-16 1.224647e-16 -1 580.2583 459.0638)" style="fill:#EBEBEB;" width="7.721" height="4.225"/>
				
					<rect x="295.252" y="216.445" transform="matrix(-1 -1.224647e-16 1.224647e-16 -1 598.2255 437.1148)" style="fill:#EBEBEB;" width="7.721" height="4.225"/>
				
					<rect x="295.252" y="221.932" transform="matrix(-1 -1.224647e-16 1.224647e-16 -1 598.2255 448.0894)" style="fill:#EBEBEB;" width="7.721" height="4.225"/>
				
					<rect x="295.252" y="227.42" transform="matrix(-1 -1.224647e-16 1.224647e-16 -1 598.2255 459.0638)" style="fill:#407BFF;" width="7.721" height="4.225"/>
			</g>
			<g>
				<path style="opacity:0.6;fill:#407BFF;" d="M282.216,249.596h-18.493c-1.167,0-2.112,0.946-2.112,2.112l0,0
					c0,1.167,0.946,2.112,2.112,2.112h18.493c1.167,0,2.112-0.946,2.112-2.112l0,0C284.328,250.542,283.382,249.596,282.216,249.596
					z"/>
				<path style="opacity:0.6;fill:#407BFF;" d="M282.216,244.109h-18.493c-1.167,0-2.112,0.946-2.112,2.112l0,0
					c0,1.167,0.946,2.112,2.112,2.112h18.493c1.167,0,2.112-0.946,2.112-2.112l0,0C284.328,245.055,283.382,244.109,282.216,244.109
					z"/>
				<path style="opacity:0.6;fill:#407BFF;" d="M282.216,238.622h-18.493c-1.167,0-2.112,0.946-2.112,2.112l0,0
					c0,1.167,0.946,2.112,2.112,2.112h18.493c1.167,0,2.112-0.946,2.112-2.112l0,0C284.328,239.567,283.382,238.622,282.216,238.622
					z"/>
				
					<rect x="286.269" y="194.269" transform="matrix(-1 -1.224647e-16 1.224647e-16 -1 580.2583 392.762)" style="fill:#EBEBEB;" width="7.721" height="4.225"/>
				
					<rect x="286.269" y="199.756" transform="matrix(-1 -1.224647e-16 1.224647e-16 -1 580.2583 403.7364)" style="fill:#407BFF;" width="7.721" height="4.225"/>
				
					<rect x="286.269" y="205.243" transform="matrix(-1 -1.224647e-16 1.224647e-16 -1 580.2583 414.711)" style="fill:#EBEBEB;" width="7.721" height="4.225"/>
				
					<rect x="295.252" y="194.269" transform="matrix(-1 -1.224647e-16 1.224647e-16 -1 598.2255 392.762)" style="fill:#407BFF;" width="7.721" height="4.225"/>
				
					<rect x="295.252" y="199.756" transform="matrix(-1 -1.224647e-16 1.224647e-16 -1 598.2255 403.7364)" style="fill:#EBEBEB;" width="7.721" height="4.225"/>
				
					<rect x="295.252" y="205.243" transform="matrix(-1 -1.224647e-16 1.224647e-16 -1 598.2255 414.711)" style="fill:#EBEBEB;" width="7.721" height="4.225"/>
			</g>
			<g>
				<path style="opacity:0.6;fill:#407BFF;" d="M282.216,271.772h-18.493c-1.167,0-2.112,0.946-2.112,2.112l0,0
					c0,1.167,0.946,2.112,2.112,2.112h18.493c1.167,0,2.112-0.946,2.112-2.112l0,0C284.328,272.718,283.382,271.772,282.216,271.772
					z"/>
				<path style="opacity:0.6;fill:#407BFF;" d="M282.216,266.285h-18.493c-1.167,0-2.112,0.946-2.112,2.112l0,0
					c0,1.167,0.946,2.112,2.112,2.112h18.493c1.167,0,2.112-0.946,2.112-2.112l0,0C284.328,267.231,283.382,266.285,282.216,266.285
					z"/>
				<path style="opacity:0.6;fill:#407BFF;" d="M282.216,260.798h-18.493c-1.167,0-2.112,0.946-2.112,2.112v0
					c0,1.167,0.946,2.112,2.112,2.112h18.493c1.167,0,2.112-0.946,2.112-2.112v0C284.328,261.744,283.382,260.798,282.216,260.798z"
					/>
				
					<rect x="286.269" y="172.092" transform="matrix(-1 -1.224647e-16 1.224647e-16 -1 580.2583 348.4092)" style="fill:#407BFF;" width="7.721" height="4.225"/>
				
					<rect x="286.269" y="177.579" transform="matrix(-1 -1.224647e-16 1.224647e-16 -1 580.2583 359.3836)" style="fill:#EBEBEB;" width="7.721" height="4.225"/>
				
					<rect x="286.269" y="183.067" transform="matrix(-1 -1.224647e-16 1.224647e-16 -1 580.2583 370.3582)" style="fill:#EBEBEB;" width="7.721" height="4.225"/>
				
					<rect x="295.252" y="172.092" transform="matrix(-1 -1.224647e-16 1.224647e-16 -1 598.2255 348.4092)" style="fill:#EBEBEB;" width="7.721" height="4.225"/>
				
					<rect x="295.252" y="177.579" transform="matrix(-1 -1.224647e-16 1.224647e-16 -1 598.2255 359.3836)" style="fill:#EBEBEB;" width="7.721" height="4.225"/>
				
					<rect x="295.252" y="183.067" transform="matrix(-1 -1.224647e-16 1.224647e-16 -1 598.2255 370.3582)" style="fill:#407BFF;" width="7.721" height="4.225"/>
			</g>
		</g>
	</g>
</g>
</svg>
